<?xml version="1.0" standalone="no"?>
<!DOCTYPE svg PUBLIC "-//W3C//DTD SVG 20010904//EN"
 "http://www.w3.org/TR/2001/REC-SVG-20010904/DTD/svg10.dtd">
<svg version="1.0" xmlns="http://www.w3.org/2000/svg"
 width="341.000000pt" height="341.000000pt" viewBox="0 0 341.000000 341.000000"
 preserveAspectRatio="xMidYMid meet">
<metadata>
Created by potrace 1.11, written by Peter Selinger 2001-2013
</metadata>
<g transform="translate(0.000000,341.000000) scale(0.100000,-0.100000)"
fill="#000000" stroke="none">
<path d="M340 3402 c0 -5 7 -9 15 -9 8 0 12 4 9 9 -3 4 -9 8 -15 8 -5 0 -9 -4
-9 -8z"/>
<path d="M386 3401 c-3 -5 0 -13 7 -19 10 -8 13 -6 13 9 0 20 -11 25 -20 10z"/>
<path d="M546 3395 c4 -8 10 -15 15 -15 4 0 6 7 3 15 -4 8 -10 15 -15 15 -4 0
-6 -7 -3 -15z"/>
<path d="M600 3401 c23 -6 24 -7 5 -15 -19 -7 -19 -8 -2 -17 9 -6 17 -16 17
-24 0 -9 6 -12 15 -9 27 11 15 -11 -17 -30 -29 -17 -32 -18 -43 -3 -7 9 -16
13 -21 9 -4 -4 -3 0 4 9 6 9 9 19 5 22 -3 4 -1 7 5 7 6 0 14 -4 17 -10 3 -5
12 -10 18 -10 7 1 1 10 -12 21 l-24 19 -16 -22 c-9 -13 -14 -27 -13 -33 2 -5
-2 -4 -9 2 -10 10 -16 10 -30 -3 -11 -10 -19 -12 -24 -5 -11 19 -53 13 -60 -8
-6 -20 -45 -18 -45 3 0 6 -11 -2 -25 -18 -29 -34 -30 -37 -10 -30 20 8 45 -13
38 -32 -3 -8 0 -14 7 -14 9 0 11 10 7 30 -4 16 -3 29 1 28 4 -1 15 2 26 7 11
5 21 3 25 -4 4 -6 21 -14 37 -17 32 -6 45 -14 22 -14 -18 0 -28 -20 -24 -47 2
-10 1 -12 -1 -5 -3 9 -13 12 -31 7 -32 -8 -28 -4 -37 -34 -6 -21 -5 -23 14
-18 12 3 19 1 15 -4 -3 -5 1 -9 8 -9 19 0 20 -40 2 -47 -22 -8 -29 4 -13 23
13 16 11 17 -15 10 -20 -5 -34 -2 -47 10 -23 21 -53 11 -46 -16 6 -24 -17 -47
-29 -28 -5 7 -7 24 -6 38 1 23 1 23 -7 5 -19 -40 -13 -54 29 -65 42 -11 54
-30 19 -30 -11 0 -27 -7 -36 -15 -12 -12 -18 -13 -29 -4 -21 18 -47 -8 -40
-40 3 -14 3 -20 0 -14 -4 10 -9 9 -21 -3 -9 -8 -21 -13 -28 -11 -6 3 -12 -1
-12 -9 0 -8 4 -14 9 -14 4 0 8 -9 8 -20 0 -16 -7 -20 -36 -20 -29 0 -35 3 -30
16 5 14 4 15 -8 5 -8 -7 -12 -19 -9 -27 3 -8 0 -14 -6 -14 -6 0 -11 5 -11 10
0 6 -5 10 -11 10 -5 0 -7 -4 -4 -10 3 -5 -1 -10 -9 -10 -9 0 -16 7 -16 15 0 8
-6 15 -14 15 -8 0 -16 6 -19 13 -2 6 -4 -19 -4 -56 0 -54 2 -67 13 -63 8 3 14
-1 14 -8 0 -8 7 -16 15 -20 17 -6 21 9 5 19 -5 3 -10 10 -10 16 0 13 54 11 68
-3 10 -10 15 -10 22 2 5 8 11 12 12 10 2 -3 12 -17 21 -32 16 -26 16 -27 0
-21 -10 3 -25 11 -33 17 -9 6 -7 1 3 -11 11 -12 16 -26 13 -32 -3 -5 2 -11 11
-14 10 -2 3 -4 -15 -4 -22 0 -38 7 -47 21 -12 16 -17 18 -27 8 -10 -10 -10
-15 2 -22 12 -8 12 -10 -3 -16 -9 -3 -17 -12 -17 -19 0 -7 -9 -23 -20 -36 -15
-19 -19 -21 -20 -7 0 9 6 19 13 21 7 3 5 6 -5 6 -15 1 -18 -7 -18 -43 0 -36 4
-46 21 -51 16 -6 20 -14 17 -43 -3 -31 0 -36 24 -43 17 -4 33 -2 45 6 27 20
43 8 36 -26 -5 -25 -2 -31 16 -36 25 -7 27 -20 4 -26 -17 -4 -17 -5 0 -6 22
-1 22 -17 -1 -30 -15 -9 -14 -10 6 -11 15 0 22 -5 19 -12 -2 -7 -10 -12 -16
-11 -6 2 -11 -1 -11 -6 0 -15 -50 1 -61 20 -6 13 -6 19 1 19 5 0 10 5 10 11 0
8 -4 8 -14 -1 -11 -8 -20 -9 -33 -1 -10 6 -14 11 -10 11 13 0 -20 30 -33 30
-7 0 -10 8 -7 19 2 10 1 25 -4 32 -6 9 -9 -3 -9 -34 0 -36 3 -46 13 -41 10 6
10 4 0 -7 -15 -16 -17 -33 -3 -24 6 3 10 2 10 -4 0 -7 8 -7 26 -1 23 9 25 8
22 -12 -2 -14 -15 -29 -35 -38 -18 -8 -33 -21 -33 -29 0 -11 3 -11 15 -1 12
10 15 9 15 -6 0 -16 2 -17 10 -4 8 13 10 13 10 -1 0 -9 -6 -22 -14 -28 -11
-10 -17 -8 -25 6 -9 16 -10 16 -11 -4 0 -13 3 -22 8 -22 21 4 23 -3 8 -20 -12
-13 -14 -21 -6 -26 8 -5 8 -10 0 -20 -8 -10 -7 -13 4 -11 9 1 19 5 22 9 4 4
17 7 28 6 17 0 16 -2 -6 -11 -26 -9 -32 -21 -29 -59 1 -9 -5 -22 -14 -29 -12
-10 -13 -15 -3 -28 10 -12 10 -16 1 -19 -8 -3 -13 -22 -13 -46 0 -28 3 -37 9
-28 12 18 24 -18 23 -70 -1 -21 4 -42 10 -45 8 -5 9 -1 5 10 -4 10 -1 19 8 22
8 4 13 9 10 14 -2 4 6 5 20 3 44 -9 37 -41 -7 -34 -5 0 -7 -4 -5 -11 1 -7 -7
-16 -18 -21 -31 -15 -57 -55 -53 -84 3 -25 4 -26 19 -10 15 15 16 14 17 -8 0
-13 -3 -24 -7 -23 -25 3 -31 -6 -31 -44 0 -23 3 -38 7 -34 5 4 9 12 9 17 1 5
2 14 3 19 2 20 38 9 49 -15 11 -24 10 -25 -8 -15 -16 9 -20 8 -20 -6 0 -9 -9
-18 -20 -21 -21 -5 -28 -23 -10 -23 7 0 7 -6 0 -19 -14 -27 -13 -30 10 -28 11
1 20 4 20 8 0 4 10 10 22 14 l23 8 -22 4 c-20 4 -21 5 -5 21 16 16 18 16 41
-5 13 -13 29 -23 36 -23 14 0 26 -33 16 -46 -3 -5 -18 -10 -33 -11 -20 -1 -28
4 -31 20 -4 19 -4 18 -6 -5 0 -15 -8 -34 -17 -43 -15 -15 -14 -15 12 -9 37 8
36 9 57 0 9 -5 17 -17 17 -27 0 -11 -7 -19 -17 -19 -15 0 -15 -2 -4 -9 8 -5
11 -15 8 -23 -6 -17 50 -104 65 -100 5 1 7 -6 3 -19 -7 -20 -6 -20 17 -6 17
11 29 13 48 5 15 -6 20 -12 13 -15 -19 -7 -16 -33 4 -33 22 0 8 -13 -17 -15
-10 -1 -18 3 -17 8 1 6 -18 12 -42 14 -49 3 -62 10 -42 22 10 6 9 14 -6 38
-10 17 -22 31 -26 31 -4 1 -15 8 -23 17 -12 12 -13 19 -5 29 7 9 8 17 2 20 -5
3 -7 15 -4 27 6 22 -10 39 -37 39 -13 0 -13 -1 0 -10 12 -7 12 -10 1 -10 -8 0
-11 -6 -7 -17 4 -9 1 -20 -6 -25 -20 -12 -25 -10 -31 13 -3 12 -10 18 -16 14
-14 -8 -14 -55 -1 -55 5 0 7 -7 4 -15 -4 -9 4 -25 20 -40 30 -28 35 -51 8 -37
-20 11 -42 5 -42 -10 0 -6 3 -8 7 -5 3 4 12 -1 18 -10 10 -13 10 -21 1 -35 -8
-14 -8 -23 2 -38 6 -11 12 -26 12 -34 0 -8 6 -16 13 -19 9 -3 9 -9 1 -23 -15
-26 -7 -49 12 -33 11 9 15 8 20 -4 5 -13 9 -14 19 -4 12 10 11 14 -2 24 -8 6
-21 9 -29 6 -12 -5 -13 -1 -2 22 11 25 13 25 25 9 8 -11 29 -18 59 -20 53 -3
75 -17 56 -36 -9 -9 -12 -8 -12 5 0 13 -5 15 -24 7 -13 -5 -26 -6 -29 -3 -3 3
-3 -4 0 -15 3 -13 11 -18 19 -15 12 4 12 1 -1 -23 -18 -35 -13 -41 19 -20 32
20 38 20 65 -3 l22 -19 -31 -22 c-37 -26 -59 -31 -83 -18 -22 11 -32 5 -21
-13 29 -48 -4 -91 -37 -48 -21 27 -21 59 0 75 10 7 11 13 3 18 -6 3 -13 2 -17
-4 -3 -5 -16 -10 -28 -10 -16 0 -18 -3 -9 -12 18 -18 15 -25 -18 -31 -21 -5
-28 -11 -24 -22 3 -8 10 -13 14 -10 4 3 22 -2 39 -11 32 -16 33 -20 13 -73 -3
-8 -1 -12 5 -8 5 4 18 0 28 -7 22 -16 11 -40 -16 -33 -10 3 -20 0 -23 -7 -3
-7 -8 -6 -15 4 -10 13 -11 13 -11 0 0 -12 -2 -13 -9 -1 -5 7 -14 10 -20 7 -14
-9 -14 -36 0 -36 6 0 9 -7 5 -15 -3 -8 -1 -15 4 -15 6 0 10 9 10 19 0 18 3 19
30 9 17 -5 42 -7 56 -4 36 9 56 -9 43 -40 -11 -32 -11 -31 4 -31 6 0 19 -2 27
-4 11 -3 14 3 13 21 l-3 25 17 -27 c18 -28 33 -36 33 -19 0 6 -4 13 -10 16
-13 8 -13 45 -1 45 5 0 17 -7 26 -16 13 -14 14 -19 3 -25 -12 -8 -4 -13 14
-10 4 0 3 -10 -2 -23 -8 -22 -6 -25 18 -28 22 -2 28 -9 30 -35 4 -41 28 -63
37 -33 4 13 13 20 23 18 13 -3 17 -13 15 -46 -1 -32 2 -42 14 -42 11 0 14 -8
11 -30 -3 -21 0 -30 10 -30 7 0 12 6 10 12 -6 16 55 38 82 31 16 -4 20 0 20
20 0 28 28 45 36 22 4 -9 1 -22 -6 -30 -6 -8 -9 -18 -6 -23 3 -5 -8 -12 -25
-16 -19 -3 -28 -10 -23 -17 3 -6 0 -15 -7 -20 -12 -7 -12 -12 -1 -30 14 -22
10 -35 -7 -24 -6 3 -11 16 -11 28 0 16 -3 18 -9 9 -7 -11 -9 -11 -14 2 -4 9 2
21 16 31 12 8 17 15 11 15 -17 0 -96 -89 -89 -101 9 -13 46 30 39 45 -3 6 6
-2 21 -18 32 -35 20 -58 -26 -49 -19 4 -29 1 -29 -7 0 -7 6 -10 14 -7 8 3 19
-5 26 -18 7 -13 18 -21 26 -18 8 3 14 0 14 -6 0 -6 9 -11 20 -11 22 0 22 0 24
-44 1 -16 7 -31 14 -34 15 -5 16 -32 1 -32 -5 0 -7 6 -3 12 5 9 2 8 -9 -1 -11
-8 -15 -21 -12 -32 8 -25 -23 -26 -32 -2 -4 10 -11 21 -16 24 -6 4 -5 21 3 44
9 27 9 40 1 48 -11 11 -15 1 -12 -35 1 -9 -3 -19 -8 -22 -7 -5 -7 -15 -1 -32
13 -33 13 -34 -5 -34 -8 0 -15 -7 -15 -15 0 -11 7 -13 29 -9 16 4 32 1 35 -5
5 -7 47 -11 113 -11 88 0 104 2 100 15 -8 18 8 28 33 20 11 -4 17 -12 13 -21
-4 -11 10 -14 80 -14 83 0 84 0 80 24 -6 30 9 39 33 21 10 -8 14 -15 7 -15 -7
0 -10 -7 -7 -15 5 -13 51 -15 325 -15 218 0 319 3 319 11 0 5 -4 7 -10 4 -6
-3 -7 1 -4 10 8 20 39 15 39 -5 0 -18 92 -27 108 -11 14 14 30 14 22 1 -4 -6
27 -10 85 -10 58 0 89 4 85 10 -3 6 1 10 9 10 9 0 16 -4 16 -10 0 -5 5 -10 10
-10 18 0 10 29 -10 35 -40 13 -17 45 31 45 24 0 24 -9 2 -26 -17 -12 -17 -13
1 -20 10 -4 27 -2 38 5 11 7 23 10 26 7 3 -3 0 -6 -7 -6 -9 0 -9 -5 -1 -20 10
-19 20 -20 193 -19 100 0 190 5 199 10 10 5 18 6 18 1 0 -9 37 -14 65 -7 22 5
33 49 15 60 -17 10 -11 25 10 25 11 0 19 -5 17 -11 -3 -17 25 -18 58 -3 19 9
22 12 8 8 -14 -3 -23 -1 -23 6 0 6 4 9 9 5 5 -3 13 -1 16 5 4 6 15 8 26 5 11
-4 19 -2 19 4 0 6 -5 10 -11 8 -6 -1 -14 4 -16 11 -8 22 28 10 45 -16 14 -21
13 -22 -11 -22 -27 0 -42 -31 -25 -48 10 -10 3 -32 -10 -32 -4 0 -15 12 -25
28 -10 15 -16 20 -14 12 2 -8 -2 -23 -11 -32 -14 -17 -12 -18 36 -18 49 0 52
2 52 25 0 14 -5 25 -12 25 -6 0 -8 3 -4 7 4 4 22 8 39 8 31 0 32 -2 29 -32 -4
-31 -2 -33 27 -33 23 0 29 4 25 15 -3 8 -11 13 -17 12 -6 -1 -13 8 -15 21 -4
26 13 29 27 5 5 -10 13 -18 18 -18 4 0 8 -7 8 -15 0 -9 11 -16 28 -18 23 -3
27 0 27 22 0 21 -5 25 -32 28 -21 2 -33 8 -33 18 0 8 -6 21 -12 28 -10 10 -7
21 13 52 17 26 24 46 19 59 -3 12 -11 19 -16 15 -6 -3 -8 -13 -5 -21 3 -8 1
-11 -4 -8 -6 3 -10 2 -10 -4 0 -5 6 -11 13 -14 6 -2 9 -8 4 -12 -4 -5 -13 -3
-19 3 -17 17 -31 15 -24 -4 3 -8 2 -12 -4 -9 -6 3 -10 -2 -10 -12 -1 -17 -1
-17 -15 0 -7 11 -11 25 -8 33 3 8 -1 14 -8 14 -7 0 -9 -3 -6 -7 10 -9 -41 -33
-71 -33 -20 0 -23 3 -14 12 7 7 12 22 12 34 0 12 8 25 17 28 18 7 35 -12 28
-31 -6 -19 2 -16 26 8 11 11 18 27 15 35 -6 17 -50 35 -54 23 -4 -10 -32 0
-32 13 0 5 4 7 10 3 5 -3 18 3 30 15 11 11 28 20 37 20 13 0 14 -3 5 -12 -18
-18 -15 -35 8 -41 11 -3 20 -1 20 4 0 5 -4 9 -9 9 -5 0 -5 15 -1 36 6 28 5 34
-5 30 -22 -8 -38 19 -26 43 8 14 8 20 -1 23 -6 2 -8 10 -4 16 9 15 46 16 46 1
0 -5 -5 -7 -12 -3 -7 4 -8 3 -4 -4 12 -19 74 -11 79 10 3 11 0 18 -10 18 -8 0
-13 6 -10 13 2 6 -2 27 -9 46 -18 43 -18 44 5 32 10 -6 22 -7 26 -3 5 4 5 1 1
-6 -11 -19 13 -45 30 -31 23 19 51 2 50 -30 -1 -33 -13 -35 -37 -7 -9 11 -21
16 -28 12 -9 -6 -8 -13 6 -28 13 -15 15 -22 6 -25 -7 -3 -13 -11 -13 -19 0 -9
-4 -13 -9 -10 -5 3 -20 -3 -32 -14 -16 -13 -19 -19 -10 -20 12 0 12 -3 3 -12
-26 -26 -10 -29 23 -4 19 15 40 24 45 21 6 -4 10 5 10 20 0 21 4 26 16 21 15
-6 15 -4 3 11 -13 15 -12 16 8 11 18 -5 21 -2 21 22 -1 15 2 32 6 39 11 18 26
13 26 -8 0 -11 5 -23 10 -26 6 -3 10 -1 10 6 0 7 10 9 30 6 17 -4 30 -2 30 4
0 5 -13 12 -30 15 -17 4 -27 11 -23 17 3 6 1 7 -5 3 -7 -4 -21 2 -33 13 -18
16 -20 23 -10 35 7 8 11 20 10 28 -1 7 -1 24 0 38 2 24 2 24 16 6 7 -10 19
-16 25 -14 22 7 -37 58 -67 58 -24 -1 -26 -2 -10 -11 25 -14 21 -89 -4 -89
-18 0 -32 39 -33 95 -1 24 -5 30 -21 28 -11 -2 -2 6 20 16 51 25 72 27 55 6
-16 -20 7 -20 33 -1 21 16 22 26 3 26 -7 0 -19 7 -26 15 -7 8 -8 15 -2 15 8 0
23 33 19 43 0 1 5 13 12 27 11 22 10 23 -2 8 -8 -10 -20 -18 -28 -18 -11 0
-11 -2 -2 -8 10 -6 10 -12 -2 -28 -8 -11 -15 -14 -15 -6 0 6 -4 12 -10 12 -5
0 -9 -11 -8 -25 1 -14 7 -25 13 -25 10 0 -15 -20 -27 -20 -3 0 -4 18 -2 40 3
30 0 38 -10 34 -19 -7 -15 14 7 46 23 33 21 43 -7 36 -32 -8 -55 15 -48 49 4
24 6 25 23 9 10 -9 31 -17 47 -19 16 -1 34 -5 39 -8 7 -5 9 0 6 13 -4 15 0 20
16 20 11 0 21 5 21 10 0 16 -37 12 -44 -5 -3 -8 -11 -15 -18 -15 -14 0 -40 35
-44 59 -4 19 47 111 60 110 38 -4 57 3 66 25 5 13 14 27 21 32 7 4 10 3 5 -4
-6 -10 29 -42 45 -42 6 0 20 33 23 55 1 6 5 16 9 22 5 7 6 17 3 21 -3 5 6 15
19 22 17 9 24 21 23 37 -2 21 -4 22 -14 8 -9 -12 -13 -13 -16 -3 -4 11 -8 11
-21 0 -11 -10 -14 -24 -11 -53 3 -21 0 -39 -5 -39 -5 0 -16 -3 -25 -6 -13 -5
-15 0 -12 22 4 34 23 83 38 102 9 11 13 11 20 0 8 -10 11 -10 15 0 2 6 9 9 14
6 10 -6 7 27 -6 67 -5 16 -4 19 6 14 9 -6 11 -2 6 14 -3 14 0 24 9 28 22 8 5
25 -18 17 -15 -4 -19 -2 -16 7 9 28 39 22 51 -10 12 -33 27 -41 27 -15 0 8 5
12 11 8 8 -4 8 0 0 15 -7 11 -18 21 -26 21 -19 0 -19 6 1 64 9 26 14 56 11 67
-5 17 -2 20 15 16 11 -3 17 -3 14 0 -3 3 4 18 14 34 20 28 20 28 0 34 -27 9
-25 23 4 34 13 5 26 17 30 26 9 23 8 25 -8 19 -15 -6 -56 24 -56 41 0 5 4 3
10 -5 7 -11 11 -9 19 14 8 20 16 26 30 21 10 -3 24 1 31 10 15 18 -1 20 -19 3
-10 -11 -12 -10 -9 2 2 9 -5 15 -17 16 -56 3 -55 2 -55 50 0 38 2 44 14 35 10
-9 16 -8 25 3 13 15 45 11 35 -5 -3 -5 2 -9 10 -9 14 0 21 19 17 43 -1 5 4 5
10 2 18 -11 38 -69 29 -80 -6 -7 0 -11 16 -13 13 -1 23 3 21 9 -1 6 4 14 11
16 7 3 10 -1 6 -10 -3 -8 -1 -18 5 -22 7 -4 11 4 11 19 0 17 6 26 16 26 8 0
12 5 9 10 -3 6 -15 10 -26 10 -10 0 -19 5 -19 11 0 6 6 9 13 6 8 -3 12 5 12
24 0 16 -5 29 -12 29 -6 0 -19 3 -28 6 -15 6 -15 4 -5 -13 8 -12 10 -31 6 -46
-7 -29 -26 -37 -26 -12 0 8 -5 15 -12 15 -9 0 -9 3 -1 11 16 16 5 39 -15 32
-14 -4 -15 -3 -2 5 8 6 17 9 21 6 4 -2 9 3 13 11 5 13 -10 20 -36 16 -3 0 -10
13 -13 30 -5 21 -11 29 -22 25 -8 -3 -17 -6 -19 -6 -3 0 -2 -4 1 -10 3 -5 -3
-10 -14 -10 -25 0 -28 27 -7 55 10 15 11 23 2 37 -8 14 -8 23 2 38 16 26 15
43 -1 37 -22 -8 -47 17 -40 41 4 16 13 22 34 22 16 0 29 5 29 10 0 6 9 10 20
10 21 0 27 15 10 25 -5 3 -10 1 -10 -4 0 -6 -7 -11 -15 -11 -8 0 -15 -5 -15
-11 0 -5 -4 -8 -10 -4 -5 3 -6 13 -3 23 4 13 2 13 -10 -3 -9 -11 -17 -15 -17
-9 0 7 -10 14 -21 17 -16 4 -20 11 -16 26 3 12 2 19 -2 17 -4 -3 -13 5 -20 16
-12 19 -11 20 27 16 24 -2 40 1 39 7 -1 5 6 9 16 7 19 -3 22 6 6 28 -8 11 -12
12 -16 3 -2 -7 -9 -13 -14 -13 -6 0 -7 5 -4 10 3 6 1 10 -4 10 -6 0 -11 -9
-11 -20 0 -25 -17 -26 -23 -2 -4 16 -5 16 -6 0 -1 -21 -21 -24 -39 -6 -9 9
-15 9 -24 0 -9 -9 -9 -12 1 -12 7 0 9 -5 6 -10 -9 -14 -25 -2 -25 18 1 24 31
61 37 45 5 -15 33 -18 33 -4 0 5 9 11 20 14 23 6 27 27 5 27 -8 0 -15 5 -15
10 0 6 11 8 25 4 30 -8 33 9 6 33 -11 9 -17 21 -14 26 3 5 0 8 -6 6 -7 -3 -12
-9 -11 -14 1 -5 -9 -13 -22 -18 -17 -6 -26 -4 -35 9 -15 21 -15 100 0 85 6 -6
16 -11 21 -11 6 0 2 7 -9 16 -11 8 -20 20 -20 27 0 7 -8 11 -18 11 -9 -1 -17
2 -17 8 0 5 -4 7 -10 3 -14 -8 -1 -35 15 -29 7 3 16 1 20 -5 3 -6 2 -11 -3
-11 -5 0 -14 -11 -20 -25 -6 -14 -18 -25 -27 -25 -8 0 -15 -4 -15 -10 0 -5 -7
-10 -15 -10 -23 0 -18 19 8 30 21 8 18 12 -13 14 -9 1 -14 9 -12 21 6 37 11
45 33 45 12 0 23 8 26 19 3 11 12 22 22 24 14 4 14 5 -1 6 -10 0 -18 6 -18 11
0 6 -5 10 -11 10 -5 0 -7 -4 -4 -10 3 -5 -5 -22 -19 -37 -15 -15 -27 -22 -27
-15 -1 6 -2 17 -3 24 0 6 -7 13 -15 16 -8 3 -11 0 -8 -5 15 -23 15 -63 1 -63
-8 0 -14 6 -14 14 0 8 -9 12 -26 10 -16 -1 -24 2 -21 9 2 7 12 10 22 9 16 -3
17 -1 7 11 -10 12 -9 16 3 21 9 3 13 10 10 16 -4 6 -11 8 -16 5 -5 -4 -12 0
-15 9 -3 8 -12 12 -20 9 -8 -3 -14 0 -14 6 0 6 7 11 15 11 8 0 12 6 9 13 -3 8
8 16 28 22 18 6 33 17 33 25 1 8 7 14 14 12 7 -1 10 2 6 8 -3 5 -1 10 6 10 7
0 10 2 7 5 -3 3 -17 1 -31 -4 -19 -8 -28 -6 -38 5 -7 8 -24 14 -38 12 -21 -2
-25 -8 -23 -26 3 -19 0 -23 -15 -20 -10 2 -16 11 -14 19 3 8 5 26 6 42 4 42 5
43 19 25 12 -16 14 -16 24 7 7 15 8 25 2 25 -6 0 -10 16 -10 35 0 19 -4 35
-10 35 -13 0 -13 -21 0 -54 5 -14 6 -26 1 -26 -21 0 -56 27 -59 45 -6 31 -23
46 -51 43 -24 -3 -26 0 -29 50 l-3 54 26 -19 c17 -12 24 -25 22 -40 -5 -27 8
-30 22 -5 9 14 12 14 20 3 4 -7 11 -9 14 -5 10 17 -58 69 -91 70 -17 0 -29 -3
-26 -8 3 -4 1 -8 -5 -8 -6 0 -13 11 -17 25 -3 14 -9 23 -13 21 -18 -11 -36 16
-36 54 0 35 2 39 20 33 50 -15 50 -15 33 0 -20 16 -24 37 -8 37 6 0 10 6 10
13 -1 6 -9 2 -19 -10 -11 -13 -23 -23 -28 -23 -4 0 -19 -9 -33 -19 -23 -18
-23 -21 -8 -38 10 -12 14 -28 11 -46 -4 -22 -2 -26 11 -21 9 3 16 1 16 -5 0
-6 9 -11 20 -11 22 0 25 -12 9 -41 -10 -19 -12 -20 -29 -4 -10 9 -23 14 -28
11 -6 -3 -12 1 -16 9 -3 8 -11 15 -17 15 -43 0 -58 69 -15 71 20 0 20 1 1 9
-13 5 -26 3 -36 -7 -14 -12 -19 -12 -32 2 -9 8 -20 15 -26 15 -19 0 -43 48
-36 71 5 14 3 19 -3 15 -6 -3 -12 -1 -14 5 -2 7 -12 7 -31 0 -20 -8 -27 -7
-27 1 0 17 -11 3 -14 -19 -3 -19 -36 -20 -48 0 -3 5 -8 0 -10 -13 -3 -22 -4
-23 -20 -7 -9 9 -18 22 -21 29 -9 27 -22 -3 -26 -59 -1 -7 -10 -13 -20 -13
-14 0 -18 -5 -14 -20 3 -12 0 -20 -7 -20 -7 0 -10 6 -7 13 10 27 -11 40 -68
43 -67 3 -76 9 -49 29 19 14 18 14 -3 15 -16 0 -21 6 -20 20 1 12 8 20 19 20
10 0 18 7 18 15 0 12 -20 15 -125 14 -69 0 -125 -4 -125 -9 0 -5 8 -7 18 -3 9
3 14 3 11 -1 -13 -14 -49 -15 -49 -1 0 12 -46 15 -297 14 -289 -1 -298 -1
-314 -22 l-17 -20 -11 21 c-10 20 -20 22 -89 22 -43 0 -83 -5 -89 -11 -8 -8
-13 -8 -17 0 -5 7 -50 11 -122 11 -104 0 -115 -2 -112 -17 2 -15 -5 -18 -40
-19 -23 0 -39 2 -35 5 24 18 10 31 -29 30 -35 -1 -38 -2 -18 -8z m1135 -11 c3
-5 1 -10 -4 -10 -6 0 -11 5 -11 10 0 6 2 10 4 10 3 0 8 -4 11 -10z m145 0 c0
-5 -4 -10 -10 -10 -5 0 -10 5 -10 10 0 6 5 10 10 10 6 0 10 -4 10 -10z m70
-16 c0 -14 -4 -23 -9 -20 -7 5 -8 23 -2 44 4 12 11 -3 11 -24z m-490 12 c0 -3
-4 -8 -10 -11 -5 -3 -10 -1 -10 4 0 6 5 11 10 11 6 0 10 -2 10 -4z m-719 -39
c-10 -9 -11 -8 -5 6 3 10 9 15 12 12 3 -3 0 -11 -7 -18z m1009 -3 c0 -14 -5
-24 -11 -22 -6 2 -10 7 -10 11 1 4 1 14 1 22 0 8 5 15 10 15 6 0 10 -12 10
-26z m-1060 6 c0 -5 -2 -10 -4 -10 -3 0 -8 5 -11 10 -3 6 -1 10 4 10 6 0 11
-4 11 -10z m510 -1 c0 -5 -5 -7 -10 -4 -6 3 -13 0 -16 -9 -9 -23 -34 -28 -34
-6 0 17 14 26 48 29 6 0 12 -4 12 -10z m120 -15 c0 -8 -6 -11 -15 -8 -8 4 -15
12 -15 20 0 8 6 11 15 8 8 -4 15 -12 15 -20z m303 10 c-3 -8 -9 -11 -14 -8 -6
3 -16 0 -24 -6 -12 -10 -15 -10 -15 2 0 20 4 23 33 24 18 1 24 -2 20 -12z
m-713 -9 c0 -8 -4 -15 -10 -15 -5 0 -7 7 -4 15 4 8 8 15 10 15 2 0 4 -7 4 -15z
m1070 -21 c0 -15 -38 -39 -48 -30 -3 3 0 6 6 6 7 0 11 3 11 8 -1 4 -1 15 0 24
1 21 31 13 31 -8z m260 16 c0 -5 -4 -10 -10 -10 -5 0 -10 5 -10 10 0 6 5 10
10 10 6 0 10 -4 10 -10z m158 -31 c-16 -10 -33 5 -23 21 5 8 11 8 21 -1 12
-10 12 -14 2 -20z m-1718 1 c0 -5 -7 -10 -16 -10 -8 0 -12 5 -9 10 3 6 10 10
16 10 5 0 9 -4 9 -10z m528 -1 c-2 -6 -8 -10 -13 -10 -5 0 -11 4 -13 10 -2 6
4 11 13 11 9 0 15 -5 13 -11z m-418 -14 c-14 -17 -30 -20 -30 -4 0 5 5 7 10 4
6 -3 10 -1 10 4 0 6 5 11 11 11 8 0 8 -5 -1 -15z m50 5 c0 -5 -4 -10 -10 -10
-5 0 -10 5 -10 10 0 6 5 10 10 10 6 0 10 -4 10 -10z m407 -22 c-3 -8 -6 -5 -6
6 -1 11 2 17 5 13 3 -3 4 -12 1 -19z m-667 -8 c0 -5 -7 -7 -15 -4 -8 4 -15 8
-15 10 0 2 7 4 15 4 8 0 15 -4 15 -10z m65 -28 c0 -34 -29 -41 -46 -11 -10 19
-9 25 6 35 24 18 41 8 40 -24z m269 17 c-3 -5 -10 -7 -15 -3 -5 3 -7 10 -3 15
3 5 10 7 15 3 5 -3 7 -10 3 -15z m-194 -6 c27 -23 25 -42 -6 -53 -33 -13 -32
-14 -29 15 2 14 -1 27 -6 31 -11 6 -2 24 11 24 6 0 19 -8 30 -17z m264 1 c23
-23 20 -24 -14 -8 -16 9 -30 17 -30 20 0 10 30 2 44 -12z m560 0 c4 -9 4 -19
1 -22 -3 -3 -5 0 -5 6 0 7 -3 11 -7 11 -17 -3 -24 2 -18 11 9 15 22 12 29 -6z
m-104 2 c0 -3 -4 -8 -10 -11 -5 -3 -10 -1 -10 4 0 6 5 11 10 11 6 0 10 -2 10
-4z m-265 -26 c3 -5 1 -10 -4 -10 -6 0 -11 5 -11 10 0 6 2 10 4 10 3 0 8 -4
11 -10z m1080 0 c3 -5 -1 -10 -9 -10 -9 0 -16 5 -16 10 0 6 4 10 9 10 6 0 13
-4 16 -10z m-1685 -15 c0 -12 -19 -12 -23 0 -4 9 -1 12 9 8 7 -3 14 -7 14 -8z
m-36 -16 c-8 -14 -31 -11 -37 4 -4 10 2 13 19 9 13 -2 21 -8 18 -13z m76 -7
c0 -23 -19 -42 -36 -35 -11 4 -10 9 3 29 18 28 33 31 33 6z m1770 8 c-20 -13
-33 -13 -25 0 3 6 14 10 23 10 15 0 15 -2 2 -10z m112 -20 c3 -23 1 -29 -8
-26 -8 3 -18 -3 -24 -12 -11 -16 -11 -16 -6 0 3 11 -2 22 -15 29 -16 8 -18 13
-8 25 6 8 22 14 34 14 18 0 24 -7 27 -30z m41 15 c1 -5 -6 -11 -15 -13 -11 -2
-18 3 -18 13 0 17 30 18 33 0z m-266 -17 c-3 -8 -6 -5 -6 6 -1 11 2 17 5 13 3
-3 4 -12 1 -19z m-1734 -35 c3 -18 0 -23 -12 -21 -19 4 -24 45 -5 45 7 0 14
-11 17 -24z m308 14 c-1 -4 -1 -13 -1 -21 0 -8 -9 -14 -19 -13 -11 0 -18 4
-17 7 2 3 6 13 9 23 7 17 29 21 28 4z m1386 -9 c-3 -8 -6 -5 -6 6 -1 11 2 17
5 13 3 -3 4 -12 1 -19z m338 12 c3 -5 -1 -10 -10 -10 -9 0 -13 5 -10 10 3 6 8
10 10 10 2 0 7 -4 10 -10z m-1672 -29 c3 -14 0 -19 -13 -18 -15 1 -18 11 -11
35 3 10 20 -2 24 -17z m41 -9 c-22 -5 -31 7 -14 18 9 6 17 5 22 -3 4 -7 1 -13
-8 -15z m-566 -12 c3 -21 2 -22 -12 -11 -19 16 -21 44 -3 39 6 -3 14 -15 15
-28z m309 7 c1 -13 -3 -17 -13 -13 -9 3 -18 6 -20 6 -2 0 -4 6 -4 14 0 22 36
15 37 -7z m563 3 c0 -5 -4 -10 -10 -10 -5 0 -10 5 -10 10 0 6 5 10 10 10 6 0
10 -4 10 -10z m1201 -5 c0 -13 -41 -19 -41 -7 0 11 20 22 33 18 5 -1 8 -6 8
-11z m149 -2 c0 -6 -4 -15 -10 -18 -5 -3 -10 -1 -10 4 0 6 -11 11 -25 11 -14
0 -25 4 -25 8 0 5 16 8 35 8 20 -1 35 -6 35 -13z m-1459 -26 c-13 -13 -26 -3
-16 12 3 6 11 8 17 5 6 -4 6 -10 -1 -17z m1369 5 c0 -19 -18 -42 -32 -42 -15
0 -8 28 8 34 8 3 12 10 9 16 -3 5 -1 10 4 10 6 0 11 -8 11 -18z m168 0 c2 -7
-3 -12 -12 -12 -9 0 -16 7 -16 16 0 17 22 14 28 -4z m-1732 -16 c1 -9 -5 -12
-17 -9 -22 6 -25 19 -6 26 14 5 20 1 23 -17z m1829 4 c3 -5 1 -10 -4 -10 -6 0
-11 5 -11 10 0 6 2 10 4 10 3 0 8 -4 11 -10z m-29 -47 c-4 -4 -11 -1 -16 7
-16 25 -11 35 7 17 9 -9 13 -20 9 -24z m-2348 8 c3 -8 -1 -12 -9 -9 -7 2 -15
10 -17 17 -3 8 1 12 9 9 7 -2 15 -10 17 -17z m1087 -1 c3 -5 0 -10 -7 -10 -9
0 -9 -3 2 -10 12 -8 11 -10 -6 -10 -28 0 -36 10 -23 27 14 16 26 17 34 3z
m-896 -26 c4 3 8 -1 8 -9 0 -19 -6 -19 -28 1 -13 12 -19 12 -25 3 -4 -7 -3
-10 3 -6 6 4 17 -1 26 -11 15 -16 15 -19 -4 -30 -15 -10 -20 -10 -23 0 -2 7
-7 21 -10 30 -3 11 3 23 17 33 20 14 22 14 25 0 2 -8 7 -13 11 -11z m1964 -24
c-5 -20 -23 -26 -36 -13 -9 8 12 33 28 33 8 0 11 -8 8 -20z m-1413 -5 c0 -8
-4 -15 -9 -15 -13 0 -22 16 -14 24 11 11 23 6 23 -9z m-873 -27 c-3 -8 -6 -5
-6 6 -1 11 2 17 5 13 3 -3 4 -12 1 -19z m458 4 c-3 -3 -11 0 -18 7 -9 10 -8
11 6 5 10 -3 15 -9 12 -12z m2012 -1 c-1 -15 -4 -17 -19 -7 -24 14 -23 26 1
26 13 0 19 -6 18 -19z m33 -26 c0 6 5 2 11 -8 6 -10 15 -14 22 -10 7 4 5 -3
-4 -17 -18 -28 -55 -44 -65 -28 -4 7 -3 8 4 4 8 -5 12 6 12 36 0 31 3 39 10
28 5 -8 10 -10 10 -5z m-2446 -52 c10 -26 0 -25 -18 1 -13 20 -13 24 -2 20 8
-3 17 -13 20 -21z m2616 17 c0 -5 -2 -10 -4 -10 -3 0 -8 5 -11 10 -3 6 -1 10
4 10 6 0 11 -4 11 -10z m-75 -20 c-3 -5 -10 -10 -16 -10 -5 0 -9 5 -9 10 0 6
7 10 16 10 8 0 12 -4 9 -10z m-2615 -10 c0 -5 -8 -10 -17 -10 -15 0 -16 2 -3
10 19 12 20 12 20 0z m-190 -21 c0 -14 -17 -10 -23 5 -4 10 -1 13 9 9 7 -3 14
-9 14 -14z m74 -14 c-4 -8 -10 -15 -15 -15 -5 0 -9 7 -9 15 0 8 7 15 15 15 9
0 12 -6 9 -15z m2730 -81 c25 -10 19 -34 -8 -34 -29 0 -44 19 -25 31 17 11 14
10 33 3z m-2604 -25 c0 -5 -7 -9 -15 -9 -8 0 -15 7 -15 15 0 9 6 12 15 9 8 -4
15 -10 15 -15z m92 6 c0 -5 -5 -11 -11 -13 -6 -2 -11 4 -11 13 0 9 5 15 11 13
6 -2 11 -8 11 -13z m2440 3 c-7 -7 -8 -17 -1 -30 5 -10 8 -18 7 -19 -22 -6
-38 -6 -39 -1 0 4 -2 15 -4 24 -2 10 4 22 13 28 23 13 38 12 24 -2z m-2197
-58 c3 -5 1 -10 -4 -10 -6 0 -11 5 -11 10 0 6 2 10 4 10 3 0 8 -4 11 -10z
m2290 -11 c6 -19 0 -38 -9 -28 -10 12 -16 49 -7 49 5 0 13 -9 16 -21z m65 13
c0 -13 -12 -22 -22 -16 -10 6 -1 24 13 24 5 0 9 -4 9 -8z m-2837 -29 c3 -5 8
-25 11 -45 5 -32 3 -38 -12 -38 -13 0 -14 2 -3 9 11 7 9 11 -8 21 -16 8 -20
15 -12 24 7 9 7 16 -1 24 -9 9 -8 12 4 12 9 0 19 -3 21 -7z m99 -5 c29 -24 29
-46 -2 -50 -26 -4 -27 -3 -17 20 9 18 8 25 -4 33 -8 5 -9 9 -3 9 5 0 17 -6 26
-12z m228 -8 c0 -4 -11 -17 -26 -31 -19 -18 -24 -19 -20 -6 4 9 8 23 10 30 4
14 36 20 36 7z m2367 -22 c-6 -4 -19 -2 -29 3 -22 12 -24 23 -3 15 8 -3 15 -1
15 5 0 5 6 4 14 -3 9 -9 10 -15 3 -20z m-2637 2 c0 -5 -8 -10 -17 -10 -15 0
-16 2 -3 10 19 12 20 12 20 0z m290 2 c0 -4 -9 -13 -20 -20 -22 -13 -27 -3 -8
16 14 14 28 16 28 4z m2580 -32 c0 -5 -5 -10 -11 -10 -5 0 -7 5 -4 10 3 6 8
10 11 10 2 0 4 -4 4 -10z m-110 -10 c0 -5 -7 -10 -15 -10 -8 0 -15 5 -15 10 0
6 7 10 15 10 8 0 15 -4 15 -10z m79 -31 c-9 -5 -16 -3 -20 9 -8 22 13 36 25
15 5 -10 4 -18 -5 -24z m-2781 -1 c-3 -7 -14 -14 -26 -14 -18 -1 -20 2 -11 12
14 17 42 18 37 2z m-128 -8 c0 -13 -11 -13 -30 0 -12 8 -11 10 8 10 12 0 22
-4 22 -10z m334 -12 c3 -14 -1 -29 -10 -38 -15 -14 -15 -13 -5 7 8 17 8 22 -5
27 -8 3 -12 10 -9 16 10 17 22 11 29 -12z m2631 -18 c-10 -16 -23 -11 -20 8 2
9 4 22 5 27 0 6 5 2 11 -8 5 -9 7 -22 4 -27z m-2725 0 c0 -5 -4 -10 -10 -10
-5 0 -10 5 -10 10 0 6 5 10 10 10 6 0 10 -4 10 -10z m116 -27 c-10 -10 -19 5
-10 18 6 11 8 11 12 0 2 -7 1 -15 -2 -18z m654 -17 c0 -2 -7 -7 -16 -10 -8 -3
-12 -2 -9 4 6 10 25 14 25 6z m-890 -56 c-6 -11 -12 -20 -13 -20 -2 0 -3 9 -4
20 -1 12 4 20 13 20 12 0 12 -4 4 -20z m38 -17 c-10 -2 -18 -9 -18 -15 0 -6
-3 -9 -6 -5 -10 10 6 27 24 26 15 -1 15 -2 0 -6z m128 -45 c5 -7 2 -8 -7 -3
-11 6 -12 5 -1 -6 6 -7 12 -19 12 -26 0 -21 -20 -15 -30 10 -5 12 -9 16 -9 8
-1 -8 -4 -11 -7 -8 -8 7 14 37 27 37 4 0 11 -5 15 -12z m2570 -27 c-4 -5 -13
-8 -22 -4 -10 4 -12 9 -4 18 5 6 8 14 6 17 -1 3 4 0 12 -7 8 -7 11 -18 8 -24z
m184 2 c0 -3 -8 -2 -17 1 -17 6 -17 5 0 -8 15 -11 15 -15 3 -19 -21 -8 -44 22
-26 33 13 8 40 3 40 -7z m-2060 -3 c0 -5 -4 -10 -9 -10 -6 0 -13 5 -16 10 -3
6 1 10 9 10 9 0 16 -4 16 -10z m-942 -13 c18 7 15 -4 -8 -27 -16 -16 -25 -18
-40 -10 -23 12 -25 21 -8 38 6 6 18 8 27 3 9 -5 22 -6 29 -4z m872 -16 c12
-24 -1 -35 -30 -26 -32 10 -23 40 12 44 4 1 12 -8 18 -18z m-816 -17 c9 -23 8
-24 -14 -24 -11 0 -20 2 -20 4 0 12 13 36 20 36 4 0 11 -7 14 -16z m859 -4 c3
-11 1 -20 -4 -20 -5 0 -9 9 -9 20 0 11 2 20 4 20 2 0 6 -9 9 -20z m-653 0 c0
-5 -4 -10 -10 -10 -5 0 -10 5 -10 10 0 6 5 10 10 10 6 0 10 -4 10 -10z m2760
4 c0 -13 -21 -44 -30 -44 -6 0 -10 11 -10 25 0 18 5 25 20 25 11 0 20 -3 20
-6z m-2720 -14 c0 -5 -7 -10 -16 -10 -8 0 -12 5 -9 10 3 6 10 10 16 10 5 0 9
-4 9 -10z m500 1 c0 -6 -4 -13 -10 -16 -5 -3 -10 1 -10 9 0 9 5 16 10 16 6 0
10 -4 10 -9z m-406 -26 c-3 -7 -12 -11 -20 -8 -11 4 -12 9 -3 19 14 17 30 9
23 -11z m-355 4 c24 -9 31 -16 29 -33 -2 -15 -10 -21 -25 -20 -13 0 -23 -4
-23 -9 0 -5 -7 -4 -15 3 -14 12 -14 15 0 36 14 21 14 23 -2 17 -11 -4 -14 -3
-9 5 9 14 6 14 45 1z m-75 -27 c-6 -4 -13 -15 -17 -24 -4 -11 -13 -15 -26 -11
-23 6 -28 28 -8 36 19 8 63 7 51 -1z m3074 -14 c-5 -13 -48 -21 -48 -8 0 12
13 20 33 20 10 0 17 -5 15 -12z m14 -30 c-15 -15 -16 -32 -2 -23 6 3 10 -3 10
-14 0 -12 -7 -21 -15 -21 -18 0 -20 41 -3 58 7 7 14 12 17 12 3 0 0 -5 -7 -12z
m-2379 -28 c-12 -9 -19 -20 -16 -24 4 -3 -2 -6 -12 -6 -10 0 -15 3 -12 7 4 3
2 12 -4 19 -9 11 -7 15 6 20 10 4 21 1 25 -7 7 -11 10 -10 16 4 3 10 9 15 13
12 3 -4 -4 -15 -16 -25z m103 2 c-18 -16 -18 -16 -6 6 6 13 14 21 18 18 3 -4
-2 -14 -12 -24z m2122 11 c-5 -26 -38 -29 -38 -4 0 15 6 21 21 21 14 0 19 -5
17 -17z m-2870 -6 c11 3 13 2 6 -4 -7 -4 -13 -17 -15 -27 -2 -11 -10 -21 -17
-24 -11 -3 -12 0 -2 18 10 18 10 21 -1 14 -22 -13 -49 -12 -62 5 -10 12 -9 14
6 8 9 -4 17 -2 17 5 0 7 4 7 14 -1 11 -9 15 -8 21 6 5 11 9 14 12 6 2 -7 12
-9 21 -6z m577 4 c3 -5 1 -12 -5 -16 -5 -3 -10 1 -10 9 0 18 6 21 15 7z m2182
1 c9 -6 8 -11 -5 -19 -15 -9 -18 -7 -18 8 0 21 5 23 23 11z m-2277 -12 c0 -5
-4 -10 -9 -10 -6 0 -13 5 -16 10 -3 6 1 10 9 10 9 0 16 -4 16 -10z m515 -20
c3 -5 -1 -10 -10 -10 -9 0 -13 5 -10 10 3 6 8 10 10 10 2 0 7 -4 10 -10z
m-758 -15 c0 -8 -4 -15 -9 -15 -4 0 -8 7 -8 15 0 8 4 15 8 15 5 0 9 -7 9 -15z
m-197 -25 c4 0 10 -7 14 -15 3 -8 0 -14 -7 -12 -17 3 -27 19 -26 42 1 17 2 17
6 3 2 -10 8 -18 13 -18z m661 18 c0 -10 2 -10 6 0 6 16 23 15 23 -2 0 -32 -49
-25 -50 7 0 12 20 8 21 -5z m186 -4 c-3 -3 -12 -4 -19 -1 -8 3 -5 6 6 6 11 1
17 -2 13 -5z m1959 -31 c-10 -10 -19 5 -10 18 6 11 8 11 12 0 2 -7 1 -15 -2
-18z m54 17 c0 -5 -4 -10 -10 -10 -5 0 -10 5 -10 10 0 6 5 10 10 10 6 0 10 -4
10 -10z m161 -23 c-5 -5 -7 -15 -5 -21 3 -7 -7 -23 -22 -36 l-26 -25 7 25 c4
14 11 29 16 35 5 5 9 17 9 27 0 12 5 15 16 11 10 -4 12 -9 5 -16z m-2531 9 c0
-3 -4 -8 -10 -11 -5 -3 -10 -1 -10 4 0 6 5 11 10 11 6 0 10 -2 10 -4z m-577
-17 c2 -2 -5 -12 -15 -21 -10 -10 -18 -14 -18 -9 0 5 -2 16 -5 24 -4 9 1 13
14 12 11 -1 22 -3 24 -6z m3034 -3 c0 -7 -7 -12 -16 -11 -9 2 -18 4 -21 4 -6
2 23 21 31 21 3 0 6 -6 6 -14z m-2127 -6 c0 -5 -7 -10 -15 -10 -8 0 -15 5 -15
10 0 6 7 10 15 10 8 0 15 -4 15 -10z m-960 -31 c0 -5 -4 -9 -10 -9 -5 0 -10 7
-10 16 0 8 5 12 10 9 6 -3 10 -10 10 -16z m180 -5 c0 -12 -4 -12 -20 -4 -11 6
-18 15 -15 20 8 13 35 0 35 -16z m235 -4 c3 -6 -1 -7 -9 -4 -18 7 -21 14 -7
14 6 0 13 -4 16 -10z m-365 -4 c0 -3 -4 -8 -10 -11 -5 -3 -10 -1 -10 4 0 6 5
11 10 11 6 0 10 -2 10 -4z m1140 -4 c0 -13 -12 -22 -22 -16 -10 6 -1 24 13 24
5 0 9 -4 9 -8z m-610 -12 c0 -5 -4 -10 -10 -10 -5 0 -10 5 -10 10 0 6 5 10 10
10 6 0 10 -4 10 -10z m220 -29 c0 -5 -9 -19 -20 -32 -16 -21 -19 -21 -20 -6 0
10 7 20 15 23 8 4 12 10 9 15 -3 5 0 9 5 9 6 0 11 -4 11 -9z m-640 -29 c11
-22 10 -23 -8 -18 -11 4 -23 2 -27 -4 -10 -15 -25 -12 -25 6 0 9 9 18 20 21
11 3 20 10 20 16 0 13 4 9 20 -21z m2800 -2 c0 -5 -8 -10 -17 -10 -15 0 -16 2
-3 10 19 12 20 12 20 0z m-2890 -20 c-11 -20 -40 -28 -40 -10 0 9 28 29 43 30
4 0 3 -9 -3 -20z m1951 13 c-10 -4 -10 -7 -1 -13 9 -5 9 -9 1 -14 -6 -4 -11
-2 -11 4 0 6 -4 8 -10 5 -5 -3 -10 -2 -10 4 0 10 17 19 35 19 6 0 4 -2 -4 -5z
m-1395 -16 c6 -3 12 -18 12 -32 0 -13 -4 -22 -9 -20 -4 3 -10 1 -14 -5 -13
-21 -65 1 -65 28 0 27 50 46 76 29z m546 -19 c-12 -12 -35 -1 -27 12 3 5 13 6
21 3 10 -4 12 -9 6 -15z m-929 -7 c-4 -3 -11 -10 -15 -15 -5 -5 -8 0 -8 12 0
15 4 20 16 15 9 -3 12 -9 7 -12z m457 9 c0 -5 -4 -10 -10 -10 -5 0 -10 5 -10
10 0 6 5 10 10 10 6 0 10 -4 10 -10z m2368 -6 c2 -1 1 -12 -3 -25 -4 -13 -10
-17 -14 -11 -9 15 -51 3 -51 -14 0 -14 -18 -29 -27 -21 -3 3 -1 12 3 19 8 13
10 18 12 50 2 14 9 16 40 11 20 -3 39 -7 40 -9z m-2230 -21 c-4 -22 -22 -20
-26 1 -2 10 3 16 13 16 10 0 15 -7 13 -17z m199 -8 c0 -8 -4 -15 -9 -15 -10 0
-11 14 -1 23 9 10 10 9 10 -8z m-867 -11 c0 -8 4 -13 8 -10 5 3 9 -1 9 -9 0
-18 -19 -19 -35 -3 -17 17 -15 38 3 38 8 0 15 -7 15 -16z m910 -8 c0 -3 -4 -8
-10 -11 -5 -3 -10 -1 -10 4 0 6 5 11 10 11 6 0 10 -2 10 -4z m2019 -22 c-6 -8
-12 -26 -13 -41 -5 -60 -39 -90 -65 -59 -9 10 -8 15 4 20 8 3 15 11 15 18 0 7
10 24 23 38 13 14 22 31 19 38 -2 8 2 10 12 6 13 -5 14 -9 5 -20z m-2699 6 c0
-5 -2 -10 -4 -10 -3 0 -8 5 -11 10 -3 6 -1 10 4 10 6 0 11 -4 11 -10z m178
-35 c-7 -8 -38 23 -38 38 0 6 10 2 22 -10 12 -13 19 -25 16 -28z m707 5 c-3
-5 -14 -6 -25 -3 -20 5 -26 23 -13 36 8 9 44 -23 38 -33z m-1245 -1 c0 -5 -4
-9 -10 -9 -5 0 -10 7 -10 16 0 8 5 12 10 9 6 -3 10 -10 10 -16z m585 2 c3 -5
1 -12 -5 -16 -5 -3 -10 1 -10 9 0 18 6 21 15 7z m235 -1 c0 -5 -5 -10 -11 -10
-5 0 -7 5 -4 10 3 6 8 10 11 10 2 0 4 -4 4 -10z m2128 -2 c8 -10 4 -13 -14
-14 -25 -2 -33 11 -11 19 6 3 13 6 13 6 1 1 6 -5 12 -11z m-2762 -25 c-4 -9
-1 -20 5 -24 20 -12 2 -41 -21 -34 -11 4 -20 2 -20 -4 0 -6 5 -11 10 -11 6 0
10 -8 10 -17 -1 -16 -2 -16 -16 2 -17 22 -13 66 8 90 18 20 32 19 24 -2z
m2922 -1 c2 -7 -6 -12 -17 -12 -21 0 -27 11 -14 24 9 9 26 2 31 -12z m-2503
-13 c-4 -6 -9 -8 -12 -5 -3 3 -14 1 -24 -5 -12 -6 -19 -6 -19 0 0 11 17 19 43
20 10 1 15 -4 12 -10z m45 -9 c0 -5 -5 -10 -11 -10 -5 0 -7 5 -4 10 3 6 8 10
11 10 2 0 4 -4 4 -10z m-147 -42 c-9 -16 -32 -7 -30 11 0 11 5 17 9 15 4 -3 8
1 9 8 0 7 4 4 8 -7 5 -11 7 -23 4 -27z m2572 32 c3 -5 -3 -10 -15 -10 -12 0
-18 5 -15 10 3 6 10 10 15 10 5 0 12 -4 15 -10z m-3025 -4 c0 -3 -4 -8 -10
-11 -5 -3 -10 -1 -10 4 0 6 5 11 10 11 6 0 10 -2 10 -4z m60 -38 c0 -16 -3
-19 -11 -11 -6 6 -8 16 -5 22 11 17 16 13 16 -11z m2875 -13 c10 -21 55 -30
55 -11 0 6 9 17 20 24 31 19 26 -7 -9 -48 -24 -28 -32 -33 -42 -22 -7 6 -21
12 -31 12 -18 0 -22 10 -18 40 1 12 -1 13 -11 3 -19 -19 -39 -16 -39 5 0 26
61 24 75 -3z m-2902 -16 c4 -16 3 -18 -9 -8 -7 6 -11 15 -8 20 8 13 11 11 17
-12z m-12 -26 c17 -14 15 -53 -3 -53 -5 0 -7 4 -4 9 3 5 -3 11 -14 14 -14 3
-20 14 -20 32 0 27 8 27 41 -2z m179 17 c3 0 -5 -9 -18 -20 -29 -24 -57 -17
-39 10 10 17 19 19 57 10z m2730 -50 c0 -5 -5 -10 -11 -10 -5 0 -7 5 -4 10 3
6 8 10 11 10 2 0 4 -4 4 -10z m-2827 -22 c4 -12 4 -24 1 -27 -6 -7 -24 20 -24
37 0 21 17 13 23 -10z m67 -14 c0 -8 -5 -12 -10 -9 -6 4 -8 11 -5 16 9 14 15
11 15 -7z m2725 -4 c3 -5 1 -10 -4 -10 -6 0 -11 5 -11 10 0 6 2 10 4 10 3 0 8
-4 11 -10z m60 0 c-3 -5 -13 -10 -21 -10 -8 0 -14 5 -14 10 0 6 9 10 21 10 11
0 17 -4 14 -10z m-112 -25 c-3 -9 -8 -14 -10 -11 -3 3 -2 9 2 15 9 16 15 13 8
-4z m-2783 -3 c0 -13 -12 -22 -22 -16 -10 6 -1 24 13 24 5 0 9 -4 9 -8z m2819
-11 c15 -10 5 -34 -12 -28 -11 3 -19 37 -9 37 4 0 13 -4 21 -9z m85 -6 c3 -9
0 -15 -9 -15 -16 0 -27 14 -18 24 10 10 21 7 27 -9z m-2909 -36 c-4 -5 -14 -8
-23 -8 -15 1 -15 2 1 6 9 2 14 9 11 15 -4 7 -2 8 5 4 6 -4 9 -12 6 -17z m185
11 c0 -5 -8 -10 -17 -10 -15 0 -16 2 -3 10 19 12 20 12 20 0z m2540 -10 c0 -5
-4 -10 -10 -10 -5 0 -10 5 -10 10 0 6 5 10 10 10 6 0 10 -4 10 -10z m50 -12
c0 -13 -23 -5 -28 10 -2 7 2 10 12 6 9 -3 16 -11 16 -16z m60 -8 c0 -5 -4 -10
-9 -10 -6 0 -13 5 -16 10 -3 6 1 10 9 10 9 0 16 -4 16 -10z m-2802 -20 c7 -12
8 -20 2 -20 -5 0 -9 -6 -7 -12 3 -18 -25 -16 -31 1 -3 9 0 11 8 6 10 -6 11 -2
6 19 -8 31 4 34 22 6z m1767 -7 c16 -37 14 -45 -8 -39 -12 3 -25 6 -28 6 -3 0
-4 11 -1 25 5 29 26 33 37 8z m890 7 c3 -6 -1 -7 -9 -4 -18 7 -21 14 -7 14 6
0 13 -4 16 -10z m-2705 -4 c0 -3 -4 -8 -10 -11 -5 -3 -10 -1 -10 4 0 6 5 11
10 11 6 0 10 -2 10 -4z m2880 -11 c0 -8 5 -15 10 -15 6 0 10 -8 10 -17 -1 -17
-1 -17 -11 0 -6 9 -14 15 -20 12 -5 -4 -9 3 -9 14 0 12 5 21 10 21 6 0 10 -7
10 -15z m-50 -25 c0 -5 6 -10 14 -10 26 0 27 -18 4 -40 l-23 -21 -7 23 c-10
36 -9 58 2 58 6 0 10 -4 10 -10z m-70 -15 c0 -6 -6 -17 -12 -24 -10 -11 -10
-14 0 -18 6 -3 12 -11 12 -19 0 -8 -6 -11 -15 -8 -10 4 -15 0 -15 -11 0 -9 4
-14 8 -11 4 2 8 -3 8 -12 1 -9 4 -26 8 -37 7 -19 7 -19 -7 -3 -8 10 -17 15
-20 12 -3 -3 -3 3 -1 14 3 10 -2 26 -11 36 -15 15 -15 16 1 16 16 0 16 1 0 19
-16 17 -16 19 4 24 12 3 18 11 15 19 -4 9 0 15 10 15 8 0 15 -5 15 -12z
m-2770 -5 c0 -5 -5 -10 -11 -10 -5 0 -7 5 -4 10 3 6 8 10 11 10 2 0 4 -4 4
-10z m90 -11 c0 -6 6 -9 14 -6 17 7 27 -14 17 -32 -5 -7 -22 -13 -39 -13 -19
-1 -32 -6 -32 -14 0 -8 -6 -11 -15 -8 -8 4 -15 12 -15 19 0 7 -10 16 -22 19
-22 6 -23 7 -4 21 17 13 22 13 38 -2 17 -15 20 -14 17 3 -1 8 22 24 34 24 4 0
7 -5 7 -11z m-190 -9 c0 -5 -4 -10 -10 -10 -5 0 -10 5 -10 10 0 6 5 10 10 10
6 0 10 -4 10 -10z m-2 -36 c18 -18 15 -26 -7 -15 -10 6 -22 7 -26 3 -5 -4 -5
-1 -1 6 4 6 2 12 -3 12 -6 0 -11 4 -11 10 0 11 30 1 48 -16z m2696 5 c-3 -5
-10 -7 -15 -3 -5 3 -7 10 -3 15 3 5 10 7 15 3 5 -3 7 -10 3 -15z m-2374 -15
c0 -8 -4 -14 -10 -14 -5 0 -10 9 -10 21 0 11 5 17 10 14 6 -3 10 -13 10 -21z
m375 -8 c10 -10 11 -19 7 -53 -1 -7 -8 -10 -16 -7 -15 6 -16 35 -2 45 4 4 4 9
0 12 -5 3 -18 -7 -29 -22 -18 -25 -18 -25 0 -11 17 13 18 13 13 -1 -4 -9 -1
-22 5 -28 8 -8 8 -11 0 -11 -14 0 -36 28 -39 48 -5 33 37 53 61 28z m2265 3
c0 -19 -13 -39 -25 -39 -18 0 -28 17 -21 35 5 14 46 17 46 4z m-155 -21 c-19
-11 -30 -5 -21 11 4 6 14 7 22 4 15 -5 14 -7 -1 -15z m-215 -8 c0 -11 -4 -20
-10 -20 -5 0 -10 9 -10 20 0 11 5 20 10 20 6 0 10 -9 10 -20z m-2332 -18 c2
-14 -2 -22 -11 -22 -17 0 -30 27 -21 41 9 16 29 4 32 -19z m79 3 c0 -8 -4 -15
-8 -15 -11 0 -20 16 -12 24 11 11 20 7 20 -9z m510 -7 c-3 -8 -6 -5 -6 6 -1
11 2 17 5 13 3 -3 4 -12 1 -19z m1910 -8 c1 -11 -2 -20 -8 -20 -5 0 -9 5 -9
11 0 5 -4 7 -10 4 -11 -7 -12 -3 -4 19 8 20 29 10 31 -14z m-2737 -11 c-11
-20 -10 -21 9 -16 18 4 20 3 10 -9 -6 -8 -8 -21 -4 -31 8 -18 8 -37 -1 -62 -3
-10 -7 -11 -19 -1 -7 6 -12 17 -9 25 3 7 -5 20 -18 29 -16 11 -18 16 -7 16 9
0 16 7 16 15 0 8 -6 15 -14 15 -21 0 -15 14 14 32 33 20 39 17 23 -13z m1620
21 c0 -5 0 -12 0 -15 0 -14 -13 -8 -16 8 -1 9 2 17 7 17 5 0 9 -4 9 -10z
m1194 -42 c-3 -4 -9 -8 -15 -8 -5 0 -9 4 -9 8 0 5 7 9 15 9 8 0 12 -4 9 -9z
m29 -18 c-5 -20 -15 -25 -26 -13 -5 4 18 30 30 33 0 0 -1 -9 -4 -20z m-2283 6
c0 -3 -4 -8 -10 -11 -5 -3 -10 -1 -10 4 0 6 5 11 10 11 6 0 10 -2 10 -4z
m1244 -11 c-4 -8 -10 -15 -15 -15 -4 0 -6 7 -3 15 4 8 10 15 15 15 4 0 6 -7 3
-15z m151 5 c11 -17 -5 -32 -21 -19 -8 6 -14 15 -14 20 0 12 27 11 35 -1z
m135 -54 c-15 -15 -22 -1 -14 30 l7 28 9 -24 c5 -14 5 -27 -2 -34z m-70 34 c0
-5 -4 -10 -10 -10 -5 0 -10 5 -10 10 0 6 5 10 10 10 6 0 10 -4 10 -10z m-1843
-25 c-7 -14 -16 -25 -20 -25 -8 0 -2 14 16 38 15 19 16 14 4 -13z m2238 14
c-4 -6 0 -9 11 -7 11 2 20 -4 22 -14 5 -24 -24 -23 -37 1 -6 10 -7 21 -4 25
10 10 15 7 8 -5z m460 2 c7 -12 -12 -24 -25 -16 -11 7 -4 25 10 25 5 0 11 -4
15 -9z m-585 -11 c0 -5 -4 -10 -10 -10 -5 0 -10 5 -10 10 0 6 5 10 10 10 6 0
10 -4 10 -10z m-440 -9 c0 -5 3 -16 6 -25 3 -9 1 -16 -6 -16 -6 0 -8 5 -5 10
3 6 -2 10 -12 11 -12 0 -14 2 -4 6 11 5 11 7 0 14 -11 7 -10 9 4 9 9 0 17 -4
17 -9z m70 -24 c0 -4 -10 -3 -21 4 -17 9 -19 13 -8 20 13 8 28 -5 29 -24z
m826 21 c8 -12 -24 -40 -37 -32 -5 3 -9 14 -9 25 0 21 34 27 46 7z m-2632 -7
c3 -4 -1 -17 -8 -27 -14 -18 -15 -18 -37 1 -20 18 -22 18 -16 2 4 -11 3 -16
-3 -12 -17 10 -11 25 13 35 29 11 45 12 51 1z m1848 -33 c-9 -9 -12 -7 -12 12
0 19 3 21 12 12 9 -9 9 -15 0 -24z m621 15 c-4 -10 -9 -11 -19 -2 -19 15 -18
18 5 16 11 -1 17 -6 14 -14z m197 2 c0 -8 -7 -15 -15 -15 -16 0 -20 12 -8 23
11 12 23 8 23 -8z m-981 -45 c0 -10 -2 -11 -6 -2 -6 14 -33 16 -33 2 0 -5 -7
-7 -15 -4 -15 6 -16 25 -2 35 14 10 57 -14 56 -31z m45 8 c-3 -4 -9 -8 -15 -8
-5 0 -9 4 -9 8 0 5 7 9 15 9 8 0 12 -4 9 -9z m66 2 c0 -5 -7 -10 -15 -10 -8 0
-15 5 -15 10 0 6 7 10 15 10 8 0 15 -4 15 -10z m-1670 -14 c0 -7 -7 -19 -15
-26 -11 -9 -13 -16 -5 -24 18 -18 12 -86 -7 -93 -10 -4 -21 -11 -25 -17 -5 -7
-11 -7 -20 2 -10 10 -8 14 10 19 15 3 21 11 18 20 -3 8 -6 19 -6 24 0 5 -9 9
-20 9 -24 0 -25 8 -4 38 13 19 14 26 2 40 -11 15 -11 16 3 4 13 -10 19 -9 29
3 16 19 40 20 40 1z m1351 -9 c-10 -9 -11 -8 -5 6 3 10 9 15 12 12 3 -3 0 -11
-7 -18z m303 -12 c4 -13 2 -14 -14 -5 -23 13 -26 20 -6 20 8 0 16 -7 20 -15z
m306 5 c0 -5 -10 -10 -22 -9 -22 0 -22 1 -3 9 11 5 21 9 23 9 1 1 2 -3 2 -9z
m-1200 -29 c0 -19 -25 -29 -37 -16 -8 9 -9 16 -3 20 6 4 7 11 4 17 -4 6 2 6
15 -1 11 -7 21 -15 21 -20z m660 21 c0 -13 -23 -32 -39 -32 -14 0 -14 1 -1 10
11 7 11 10 2 10 -7 0 -10 5 -7 10 7 12 45 14 45 2z m730 -6 c0 -3 -4 -8 -10
-11 -5 -3 -10 -1 -10 4 0 6 5 11 10 11 6 0 10 -2 10 -4z m-625 -24 c0 -18 -20
-15 -23 4 -3 10 1 15 10 12 7 -3 13 -10 13 -16z m975 -4 c0 -12 -3 -18 -7 -14
-11 10 -12 36 -2 36 5 0 9 -10 9 -22z m-2415 -28 c-5 -8 -11 -8 -17 -2 -6 6
-7 16 -3 22 5 8 11 8 17 2 6 -6 7 -16 3 -22z m1593 18 c-6 -18 -28 -21 -28 -4
0 9 7 16 16 16 9 0 14 -5 12 -12z m315 -42 c-3 -16 2 -28 17 -39 33 -23 -1
-29 -36 -6 -16 10 -25 19 -20 19 6 0 1 7 -10 15 -15 11 -16 15 -4 16 8 1 18 1
23 0 12 -2 8 24 -5 38 -7 8 -1 6 13 -3 19 -12 25 -23 22 -40z m64 47 c-4 -3
-2 -12 4 -19 8 -10 6 -18 -7 -31 -16 -17 -17 -17 -11 -1 3 10 2 20 -3 23 -12
7 -1 35 13 35 6 0 7 -3 4 -7z m416 -31 c-18 -5 -27 3 -18 17 4 7 10 7 20 -2
11 -10 11 -13 -2 -15z m-663 8 c0 -6 -6 -10 -12 -11 -7 0 -21 -2 -30 -4 -17
-3 -24 6 -14 16 10 9 56 8 56 -1z m-422 -25 c0 -14 -4 -25 -9 -25 -10 0 -12
34 -2 43 10 10 11 9 11 -18z m252 -14 c-1 -13 -3 -13 -15 3 -12 16 -17 17 -30
6 -12 -10 -15 -10 -15 2 0 8 3 17 6 21 11 10 54 -16 54 -32z m71 6 c-13 -13
-26 -3 -16 12 3 6 11 8 17 5 6 -4 6 -10 -1 -17z m819 3 c0 -5 -4 -10 -10 -10
-5 0 -10 5 -10 10 0 6 5 10 10 10 6 0 10 -4 10 -10z m-1098 -15 c0 -5 -5 -11
-11 -13 -6 -2 -11 4 -11 13 0 9 5 15 11 13 6 -2 11 -8 11 -13z m248 -6 c0 -5
-7 -9 -15 -9 -15 0 -20 12 -9 23 8 8 24 -1 24 -14z m630 15 c0 -8 -19 -13 -24
-6 -3 5 1 9 9 9 8 0 15 -2 15 -3z m-777 -32 c-1 -36 -3 -38 -13 -22 -14 21
-12 52 2 48 7 -3 12 -14 11 -26z m323 3 c1 -9 -6 -15 -17 -15 -21 0 -26 26 -6
33 15 5 20 1 23 -18z m-289 -15 c-1 -22 -17 -28 -17 -7 0 12 9 27 16 27 2 0 2
-9 1 -20z m138 10 c3 -5 1 -10 -4 -10 -6 0 -11 5 -11 10 0 6 2 10 4 10 3 0 8
-4 11 -10z m45 -6 c0 -17 -22 -14 -28 4 -2 7 3 12 12 12 9 0 16 -7 16 -16z
m-1695 -4 c3 -5 1 -10 -4 -10 -6 0 -11 5 -11 10 0 6 2 10 4 10 3 0 8 -4 11
-10z m-85 -10 c0 -5 -5 -10 -11 -10 -5 0 -7 5 -4 10 3 6 8 10 11 10 2 0 4 -4
4 -10z m1507 -4 c0 -8 -6 -12 -14 -9 -7 3 -10 9 -7 14 8 14 21 11 21 -5z m577
-25 c-9 -10 -26 18 -18 30 5 9 9 8 14 -7 4 -10 6 -21 4 -23z m-204 19 c0 -5
-2 -10 -4 -10 -3 0 -8 5 -11 10 -3 6 -1 10 4 10 6 0 11 -4 11 -10z m-115 -9
c6 -11 -33 -36 -42 -27 -6 5 18 35 29 36 4 0 9 -4 13 -9z m659 -3 c11 -10 8
-15 -12 -25 -13 -7 -25 -13 -26 -13 -1 0 -2 9 -3 20 -1 11 2 18 8 15 5 -4 9
-1 9 4 0 14 8 14 24 -1z m89 -9 c8 -29 -14 -49 -54 -49 -31 0 -31 1 -16 23 8
12 21 21 27 19 8 -2 10 3 7 13 -4 10 0 15 12 15 11 0 21 -9 24 -21z m-2613 -5
c0 -8 -5 -12 -10 -9 -6 4 -8 11 -5 16 9 14 15 11 15 -7z m1527 -11 c5 -13 -35
-24 -43 -12 -3 5 -3 13 0 18 8 12 39 7 43 -6z m-1487 -14 c0 -4 -6 -11 -13
-18 -10 -8 -17 -7 -25 1 -7 7 -12 9 -12 6 0 -14 29 -60 46 -72 19 -15 30 -56
13 -56 -5 0 -8 4 -4 9 3 5 -5 13 -17 17 -36 12 -48 13 -48 3 0 -5 -5 -9 -12
-9 -9 0 -9 3 0 12 19 19 14 38 -10 38 -20 0 -20 1 -5 13 12 8 14 16 7 27 -8
13 -10 12 -10 -2 0 -19 -15 -24 -25 -8 -12 19 30 45 73 45 23 0 42 -2 42 -6z
m70 -9 c-8 -5 -17 -7 -19 -4 -3 3 1 9 9 14 8 5 17 7 19 4 3 -3 -1 -9 -9 -14z
m1214 2 c2 -4 0 -14 -5 -22 -8 -13 -10 -13 -18 0 -10 15 -6 30 9 30 5 0 11 -4
14 -8z m336 -5 c0 -8 -7 -14 -15 -14 -8 0 -15 6 -15 14 0 7 7 13 15 13 8 0 15
-6 15 -13z m-1752 -9 c-2 -6 -10 -14 -16 -16 -7 -2 -10 2 -6 12 7 18 28 22 22
4z m1882 -8 c0 -5 -4 -10 -10 -10 -5 0 -10 5 -10 10 0 6 5 10 10 10 6 0 10 -4
10 -10z m-1665 -10 c3 -5 1 -10 -4 -10 -6 0 -11 5 -11 10 0 6 2 10 4 10 3 0 8
-4 11 -10z m2050 0 c3 -5 -1 -10 -10 -10 -9 0 -13 5 -10 10 3 6 8 10 10 10 2
0 7 -4 10 -10z m80 -10 c-3 -5 -1 -10 4 -10 6 0 11 -7 11 -16 0 -14 -1 -14
-16 0 -13 14 -12 36 2 36 3 0 2 -4 -1 -10z m321 -29 c5 1 17 -1 27 -6 17 -7
17 -8 -3 -22 -19 -13 -23 -13 -39 6 -10 11 -21 18 -25 14 -3 -3 -6 6 -6 22 l0
28 19 -22 c10 -12 23 -21 27 -20z m64 35 c0 -11 -19 -15 -25 -6 -3 5 1 10 9
10 9 0 16 -2 16 -4z m-430 -31 c0 -8 -2 -15 -4 -15 -2 0 -6 7 -10 15 -3 8 -1
15 4 15 6 0 10 -7 10 -15z m-1890 1 c0 -2 -7 -6 -15 -10 -8 -3 -15 -1 -15 4 0
6 7 10 15 10 8 0 15 -2 15 -4z m-230 -10 c0 -3 -4 -8 -10 -11 -5 -3 -10 -1
-10 4 0 6 5 11 10 11 6 0 10 -2 10 -4z m85 -36 c9 -15 -4 -30 -21 -23 -11 4
-12 9 -4 18 9 11 6 13 -15 11 -20 -3 -23 -1 -14 10 11 14 41 5 54 -16z m109
14 c9 -23 7 -34 -5 -34 -5 0 -8 4 -5 8 2 4 0 14 -6 22 -8 13 -9 12 -5 -1 3 -9
1 -21 -5 -27 -12 -12 -41 -4 -32 9 3 5 11 6 17 3 7 -4 9 -4 5 1 -8 9 9 35 22
35 4 0 11 -7 14 -16z m1732 -21 c-10 -10 -19 5 -10 18 6 11 8 11 12 0 2 -7 1
-15 -2 -18z m-2081 7 c4 -6 -6 -10 -22 -9 -25 0 -26 1 -8 9 11 5 21 9 22 9 1
1 5 -3 8 -9z m2483 -21 c-20 -13 -38 -11 -38 5 0 19 22 26 38 13 11 -8 11 -12
0 -18z m-2428 -3 c0 -8 -3 -22 -6 -31 -5 -13 -9 -11 -20 11 -18 34 -18 34 6
34 11 0 20 -6 20 -14z m101 1 c-1 -12 -15 -9 -19 4 -3 6 1 10 8 8 6 -3 11 -8
11 -12z m2169 3 c0 -5 -2 -10 -4 -10 -3 0 -8 5 -11 10 -3 6 -1 10 4 10 6 0 11
-4 11 -10z m-1985 -10 c3 -5 1 -10 -4 -10 -6 0 -11 5 -11 10 0 6 2 10 4 10 3
0 8 -4 11 -10z m-135 -21 c0 -5 -5 -9 -11 -9 -6 0 -9 -9 -6 -20 6 -24 -8 -26
-29 -5 -9 8 -11 15 -6 15 5 0 12 9 15 20 3 13 10 18 21 14 9 -3 16 -10 16 -15z
m1395 10 c11 -17 -1 -21 -15 -4 -8 9 -8 15 -2 15 6 0 14 -5 17 -11z m1025 6
c0 -3 -11 -18 -25 -33 -20 -21 -25 -23 -25 -9 0 9 -4 17 -10 17 -5 0 -10 4
-10 9 0 4 11 6 25 3 15 -2 25 0 25 7 0 6 5 11 10 11 6 0 10 -2 10 -5z m-225
-24 c3 -5 1 -12 -4 -15 -5 -3 -11 1 -15 9 -6 16 9 21 19 6z m105 -12 c0 -5 -4
-9 -10 -9 -5 0 -10 7 -10 16 0 8 5 12 10 9 6 -3 10 -10 10 -16z m-2235 2 c-3
-5 -1 -12 5 -16 14 -9 12 -25 -3 -25 -7 0 -14 11 -15 25 -1 14 3 25 9 25 5 0
8 -4 4 -9z m2430 -1 c3 -5 -1 -10 -9 -10 -9 0 -16 5 -16 10 0 6 4 10 9 10 6 0
13 -4 16 -10z m-225 -6 c0 -8 -19 -13 -24 -6 -3 5 1 9 9 9 8 0 15 -2 15 -3z
m-2026 -35 c-3 -5 -10 -7 -15 -3 -5 3 -7 10 -3 15 3 5 10 7 15 3 5 -3 7 -10 3
-15z m2187 -6 c-12 -20 -14 -14 -5 12 4 9 9 14 11 11 3 -2 0 -13 -6 -23z m69
12 c10 -12 9 -15 -4 -15 -10 0 -15 -4 -11 -9 6 -10 -13 -26 -21 -18 -7 7 7 57
16 57 4 0 13 -7 20 -15z m-1414 -72 c-11 -11 -17 4 -9 23 7 18 8 18 11 1 2
-10 1 -21 -2 -24z m1264 27 c0 -5 -5 -10 -11 -10 -5 0 -7 5 -4 10 3 6 8 10 11
10 2 0 4 -4 4 -10z m-2310 -21 c0 -6 -4 -7 -10 -4 -5 3 -10 11 -10 16 0 6 5 7
10 4 6 -3 10 -11 10 -16z m654 7 c-3 -8 -1 -17 5 -21 6 -3 11 -11 11 -18 0 -6
-7 -1 -16 11 -8 12 -12 27 -9 32 9 15 15 12 9 -4z m1401 -7 c-4 -5 -1 -9 6 -9
18 0 5 -10 -18 -14 -21 -5 -29 23 -9 36 13 9 28 0 21 -13z m75 11 c0 -5 -4
-10 -10 -10 -5 0 -10 5 -10 10 0 6 5 10 10 10 6 0 10 -4 10 -10z m-170 -10 c0
-5 -7 -10 -15 -10 -8 0 -15 5 -15 10 0 6 7 10 15 10 8 0 15 -4 15 -10z m135 0
c3 -5 1 -10 -4 -10 -6 0 -11 5 -11 10 0 6 2 10 4 10 3 0 8 -4 11 -10z m395 1
c0 -17 -18 -21 -24 -6 -3 9 0 15 9 15 8 0 15 -4 15 -9z m-1588 -56 c-2 -14 -8
-25 -13 -25 -5 0 -6 6 -3 14 3 8 1 17 -5 20 -6 4 -8 13 -4 22 9 24 31 -2 25
-31z m68 24 c0 -5 -7 -9 -15 -9 -15 0 -20 12 -9 23 8 8 24 -1 24 -14z m-920 1
c0 -5 -5 -10 -11 -10 -5 0 -7 5 -4 10 3 6 8 10 11 10 2 0 4 -4 4 -10z m2224
-5 c-5 -11 2 -13 28 -11 25 3 35 -1 35 -11 0 -7 -6 -12 -13 -9 -8 3 -17 -9
-24 -30 -6 -18 -16 -34 -21 -34 -6 0 -7 -4 -4 -10 3 -5 -1 -10 -9 -10 -9 0
-16 9 -16 21 0 11 5 17 10 14 6 -3 10 -2 10 3 0 6 -7 12 -15 16 -15 5 -21 57
-8 69 12 13 32 7 27 -8z m-174 1 c0 -11 -19 -15 -25 -6 -3 5 1 10 9 10 9 0 16
-2 16 -4z m130 -16 c0 -5 -2 -10 -4 -10 -3 0 -8 5 -11 10 -3 6 -1 10 4 10 6 0
11 -4 11 -10z m-327 -25 c-13 -10 -20 -10 -25 -2 -9 14 10 27 29 20 11 -4 10
-8 -4 -18z m217 1 c10 -13 10 -17 3 -12 -8 4 -13 2 -13 -6 0 -10 -2 -10 -9 1
-5 8 -7 20 -4 28 3 8 6 13 7 11 1 -2 8 -12 16 -22z m276 -12 c2 -14 -2 -24 -7
-22 -6 2 -10 7 -10 11 1 4 1 17 1 29 0 28 13 15 16 -18z m-751 -13 c-4 -36 -3
-35 -19 -22 -8 7 -13 20 -11 29 4 21 2 19 19 19 10 0 13 -9 11 -26z m577 2
c-3 -18 -8 -21 -23 -13 -22 12 -16 36 9 36 14 0 17 -6 14 -23z m-1112 8 c0 -6
-4 -13 -10 -16 -5 -3 -10 1 -10 9 0 9 5 16 10 16 6 0 10 -4 10 -9z m-840 -36
c0 -8 -4 -15 -10 -15 -5 0 -10 7 -10 15 0 8 5 15 10 15 6 0 10 -7 10 -15z
m461 -2 c13 -16 12 -17 -3 -4 -10 7 -18 15 -18 17 0 8 8 3 21 -13z m969 -14
c0 -5 6 -7 13 -3 8 5 7 2 -2 -9 -8 -10 -19 -16 -24 -14 -16 5 -17 37 -1 37 8
0 14 -5 14 -11z m505 -9 c0 -7 -6 -15 -12 -17 -8 -3 -13 4 -13 17 0 13 5 20
13 18 6 -3 12 -11 12 -18z m-1280 0 c3 -5 1 -10 -4 -10 -6 0 -11 5 -11 10 0 6
2 10 4 10 3 0 8 -4 11 -10z m575 6 c0 -3 -4 -8 -10 -11 -5 -3 -10 -1 -10 4 0
6 5 11 10 11 6 0 10 -2 10 -4z m-1255 -39 c-8 -18 -35 -12 -35 8 0 16 22 26
33 15 4 -3 5 -14 2 -23z m785 13 c0 -5 -2 -10 -4 -10 -3 0 -8 5 -11 10 -3 6
-1 10 4 10 6 0 11 -4 11 -10z m580 0 c0 -5 -4 -10 -10 -10 -5 0 -10 5 -10 10
0 6 5 10 10 10 6 0 10 -4 10 -10z m481 -13 c-13 -13 -26 -3 -16 12 3 6 11 8
17 5 6 -4 6 -10 -1 -17z m-906 -7 c10 -11 15 -21 12 -21 -25 -5 -33 -4 -44 4
-17 13 -16 37 0 37 8 0 22 -9 32 -20z m585 10 c11 0 21 -28 11 -34 -4 -3 -18
6 -31 21 -17 20 -19 25 -5 20 9 -4 20 -7 25 -7z m120 -4 c0 -8 -4 -17 -9 -21
-12 -7 -24 12 -16 25 9 15 25 12 25 -4z m-413 -22 c3 -9 0 -20 -8 -25 -9 -6
-10 -9 -2 -9 8 0 5 -12 -8 -35 -17 -29 -24 -33 -39 -25 -10 6 -28 10 -40 10
-12 0 -19 4 -16 9 4 5 3 11 -1 14 -5 2 -2 2 6 0 8 -2 18 2 23 9 8 11 11 10 15
0 5 -14 25 12 39 51 8 21 23 22 31 1z m639 1 c-3 -8 -1 -15 4 -15 6 0 10 -7
10 -15 0 -17 -9 -19 -28 -6 -12 7 -12 12 -1 30 16 24 24 28 15 6z m-417 -26
c-8 -5 -22 -7 -31 -5 -10 2 -18 0 -18 -6 0 -16 -23 -3 -26 14 -1 10 4 14 15
11 9 -2 27 0 41 5 28 11 42 -4 19 -19z m261 21 c0 -5 -5 -10 -11 -10 -5 0 -7
5 -4 10 3 6 8 10 11 10 2 0 4 -4 4 -10z m36 -1 c8 -14 -4 -25 -36 -33 -24 -7
-24 -6 -4 6 12 7 19 19 17 26 -6 15 13 16 23 1z m-1822 -14 c6 -17 4 -18 -18
-9 -20 8 -21 24 -2 24 8 0 16 -7 20 -15z m1136 9 c0 -8 -19 -13 -24 -6 -3 5 1
9 9 9 8 0 15 -2 15 -3z m889 -22 c0 -12 -2 -13 -6 -3 -4 11 -7 11 -14 0 -4 -7
-11 -10 -15 -6 -9 9 16 38 27 31 5 -3 9 -13 8 -22z m-1881 5 c13 5 14 3 5 -7
-13 -14 -33 -5 -32 13 0 9 2 9 5 0 3 -7 13 -9 22 -6z m1042 3 c0 -5 -4 -10
-10 -10 -5 0 -10 5 -10 10 0 6 5 10 10 10 6 0 10 -4 10 -10z m910 0 c0 -5 -4
-10 -10 -10 -5 0 -10 5 -10 10 0 6 5 10 10 10 6 0 10 -4 10 -10z m-2060 -25
c0 -19 -4 -23 -17 -18 -10 4 -12 8 -6 10 7 3 9 11 6 19 -3 8 0 14 6 14 6 0 11
-11 11 -25z m1120 15 c0 -5 -4 -10 -10 -10 -5 0 -10 5 -10 10 0 6 5 10 10 10
6 0 10 -4 10 -10z m720 -11 c0 -6 -4 -7 -10 -4 -5 3 -10 11 -10 16 0 6 5 7 10
4 6 -3 10 -11 10 -16z m-916 -21 c-6 -9 -34 1 -34 11 0 4 3 10 6 14 8 7 33
-16 28 -25z m672 -7 c-9 -14 -43 -14 -51 -1 -8 13 37 31 49 20 4 -5 5 -13 2
-19z m-1390 -6 c9 -19 9 -27 -1 -35 -17 -14 -35 14 -28 41 7 26 16 24 29 -6z
m564 16 c0 -6 -4 -13 -10 -16 -5 -3 -10 1 -10 9 0 9 5 16 10 16 6 0 10 -4 10
-9z m650 -40 c0 -14 -4 -21 -8 -15 -4 6 -15 13 -25 17 -15 6 -16 10 -7 27 9
17 14 19 26 9 8 -6 14 -23 14 -38z m485 17 c3 1 14 -7 25 -18 l21 -21 -28 7
c-16 4 -31 12 -35 18 -7 10 -9 7 -7 -11 1 -10 -41 -24 -52 -17 -14 8 0 24 22
24 10 0 19 5 19 10 0 6 -5 10 -10 10 -6 0 -5 6 2 14 11 13 15 13 26 -2 7 -9
15 -16 17 -14z m-395 7 c0 -11 -11 -15 -36 -15 -21 0 -33 4 -29 10 4 6 10 8
14 6 4 -3 13 -1 21 5 21 13 30 11 30 -6z m-1586 -27 c-7 -11 -32 -10 -39 2
-11 18 5 30 25 18 10 -7 16 -16 14 -20z m141 23 c3 -5 1 -12 -5 -16 -5 -3 -10
1 -10 9 0 18 6 21 15 7z m1630 -1 c3 -6 -1 -7 -9 -4 -18 7 -21 14 -7 14 6 0
13 -4 16 -10z m55 -10 c0 -5 -4 -10 -10 -10 -5 0 -10 5 -10 10 0 6 5 10 10 10
6 0 10 -4 10 -10z m80 6 c0 -3 -4 -8 -10 -11 -5 -3 -10 -1 -10 4 0 6 5 11 10
11 6 0 10 -2 10 -4z m165 -6 c3 -5 1 -10 -4 -10 -6 0 -11 5 -11 10 0 6 2 10 4
10 3 0 8 -4 11 -10z m-1234 -31 c-9 -22 -10 -22 -10 -3 -1 11 2 24 6 27 12 12
14 0 4 -24z m159 21 c0 -5 -4 -10 -10 -10 -5 0 -10 5 -10 10 0 6 5 10 10 10 6
0 10 -4 10 -10z m100 -6 c0 -8 -6 -11 -15 -8 -8 4 -15 9 -15 13 0 4 7 8 15 8
8 0 15 -6 15 -13z m314 -15 c-10 -16 -23 -9 -21 10 1 15 4 17 14 9 7 -5 10
-14 7 -19z m-929 11 c3 -5 1 -10 -4 -10 -6 0 -11 5 -11 10 0 6 2 10 4 10 3 0
8 -4 11 -10z m545 -30 c-21 -13 -43 7 -27 25 10 11 15 11 27 -1 13 -13 13 -16
0 -24z m133 26 c4 -10 0 -12 -14 -9 -10 3 -16 9 -13 14 8 13 21 11 27 -5z
m-953 -6 c0 -5 -2 -10 -4 -10 -3 0 -8 5 -11 10 -3 6 -1 10 4 10 6 0 11 -4 11
-10z m385 -9 c3 -6 -4 -15 -15 -21 -20 -11 -21 -10 -10 9 12 23 16 25 25 12z
m949 -6 c3 -8 2 -14 -2 -13 -14 5 -50 -35 -45 -48 8 -21 -5 -17 -17 5 -14 27
-2 54 21 48 12 -3 19 0 19 9 0 19 16 18 24 -1z m536 5 c0 -5 -5 -10 -11 -10
-5 0 -7 5 -4 10 3 6 8 10 11 10 2 0 4 -4 4 -10z m-2020 -15 c0 -8 -7 -15 -15
-15 -9 0 -12 6 -9 15 4 8 10 15 15 15 5 0 9 -7 9 -15z m50 5 c0 -5 -4 -10 -10
-10 -5 0 -10 5 -10 10 0 6 5 10 10 10 6 0 10 -4 10 -10z m625 0 c-3 -5 -12
-10 -18 -10 -7 0 -6 4 3 10 19 12 23 12 15 0z m589 -6 c9 -24 7 -28 -9 -14
-17 14 -20 30 -6 30 5 0 12 -7 15 -16z m286 2 c0 -19 -26 -27 -39 -12 -13 15
-4 26 21 26 10 0 18 -6 18 -14z m143 -19 c4 3 7 1 7 -6 0 -7 -7 -11 -14 -8
-10 4 -13 1 -9 -9 4 -10 0 -12 -13 -7 -14 5 -16 3 -10 -12 4 -11 4 -16 0 -12
-13 13 -33 -14 -28 -39 2 -13 0 -24 -6 -24 -6 0 -9 4 -6 8 3 5 -4 16 -15 25
-10 9 -19 14 -19 10 0 -4 -7 3 -16 15 -18 26 -10 46 16 39 13 -3 17 0 13 10
-3 8 3 20 13 28 16 12 23 11 50 -6 17 -10 34 -16 37 -12z m37 17 c0 -8 -5 -12
-10 -9 -6 4 -8 11 -5 16 9 14 15 11 15 -7z m-1600 -9 c0 -8 -6 -15 -14 -15
-17 0 -28 14 -19 24 12 12 33 6 33 -9z m1757 -11 c-9 -9 -28 6 -21 18 4 6 10
6 17 -1 6 -6 8 -13 4 -17z m28 16 c3 -5 1 -10 -4 -10 -6 0 -11 5 -11 10 0 6 2
10 4 10 3 0 8 -4 11 -10z m-526 -80 c-17 -11 -32 -2 -22 13 4 7 6 25 5 42 -2
29 -1 29 14 -9 14 -31 15 -39 3 -46z m601 65 c-14 -17 -30 -20 -30 -6 0 5 8
12 18 14 9 3 19 5 21 6 2 0 -2 -6 -9 -14z m-1960 -2 c0 -5 -4 -14 -9 -21 -7
-11 -9 -11 -14 1 -3 8 -3 18 0 21 9 8 23 7 23 -1z m1090 -24 c0 -4 -4 -11 -10
-14 -5 -3 -10 -1 -10 6 0 6 -8 18 -17 26 -16 12 -14 12 10 2 15 -7 27 -16 27
-20z m89 22 c7 -2 -22 -31 -30 -31 -5 0 -9 9 -9 19 0 18 4 19 39 12z m291 -18
c0 -47 -13 -53 -40 -20 l-24 30 27 -7 c21 -5 25 -3 21 9 -4 8 -1 15 5 15 6 0
11 -12 11 -27z m-160 13 c0 -11 -19 -15 -25 -6 -3 5 1 10 9 10 9 0 16 -2 16
-4z m-1192 -31 c-3 -3 -9 2 -12 12 -6 14 -5 15 5 6 7 -7 10 -15 7 -18z m1699
5 c1 -12 -4 -20 -13 -20 -10 0 -12 -5 -8 -12 5 -8 0 -7 -10 2 -11 8 -31 13
-45 12 -25 -3 -25 -3 -9 14 14 14 21 16 30 6 16 -16 28 -15 28 3 0 23 26 18
27 -5z m81 -5 c-3 -3 -9 2 -12 12 -6 14 -5 15 5 6 7 -7 10 -15 7 -18z m-1096
-17 c-7 -7 -12 -8 -12 -2 0 14 12 26 19 19 2 -3 -1 -11 -7 -17z m318 15 c0
-14 -19 -38 -25 -32 -8 8 5 39 16 39 5 0 9 -3 9 -7z m202 -20 c2 -10 -4 -26
-14 -35 -10 -10 -18 -17 -19 -15 0 1 -2 11 -4 22 -2 11 -9 21 -16 24 -7 2 -2
9 12 16 27 15 35 13 41 -12z m-1082 8 c0 -4 -11 -6 -25 -3 -14 2 -25 6 -25 8
0 2 11 4 25 4 14 0 25 -4 25 -9z m145 -9 c7 -18 -9 -37 -23 -28 -15 9 -11 43
5 43 6 0 15 -7 18 -15z m695 -3 c0 -5 -5 -9 -11 -9 -7 0 -18 -8 -26 -17 -14
-17 -14 -17 -9 0 6 18 -9 24 -19 7 -3 -5 -15 -15 -25 -20 -18 -10 -19 -9 -8
14 6 14 15 23 19 20 5 -3 9 -1 9 3 0 5 16 9 35 10 19 0 35 -3 35 -8z m159 -15
c-9 -11 -8 -14 4 -14 8 0 17 -7 21 -15 4 -13 2 -13 -14 -5 -10 5 -22 15 -25
21 -10 14 3 41 15 34 8 -5 7 -11 -1 -21z m468 12 c-5 -16 -27 -19 -27 -3 0 7
7 14 15 14 9 0 14 -5 12 -11z m-1172 -14 c-3 -3 -11 0 -18 7 -9 10 -8 11 6 5
10 -3 15 -9 12 -12z m-570 -22 c-21 -8 -35 -4 -35 9 0 5 12 6 27 3 24 -5 25
-6 8 -12z m85 -5 c0 -8 -4 -15 -10 -15 -5 0 -10 7 -10 15 0 8 5 15 10 15 6 0
10 -7 10 -15z m50 5 c0 -5 -2 -10 -4 -10 -3 0 -8 5 -11 10 -3 6 -1 10 4 10 6
0 11 -4 11 -10z m331 -13 c-10 -9 -11 -8 -5 6 3 10 9 15 12 12 3 -3 0 -11 -7
-18z m1229 13 c0 -5 -2 -10 -4 -10 -3 0 -8 5 -11 10 -3 6 -1 10 4 10 6 0 11
-4 11 -10z m-1085 -9 c7 -12 -12 -24 -25 -16 -11 7 -4 25 10 25 5 0 11 -4 15
-9z m619 0 c3 -5 -1 -11 -9 -15 -8 -3 -15 -1 -15 5 0 6 -4 7 -10 4 -5 -3 -10
-1 -10 4 0 13 37 15 44 2z m636 -6 c0 -2 -6 -8 -13 -14 -10 -8 -14 -7 -14 2 0
8 6 14 14 14 7 0 13 -1 13 -2z m420 -16 c0 -4 -7 -6 -15 -3 -8 4 -15 10 -15
15 0 4 7 6 15 3 8 -4 15 -10 15 -15z"/>
<path d="M543 2965 c0 -8 4 -12 9 -9 5 3 6 10 3 15 -9 13 -12 11 -12 -6z"/>
<path d="M653 1874 c0 -8 4 -14 9 -14 4 0 8 -5 8 -11 0 -6 -7 -9 -15 -6 -8 4
-17 2 -19 -2 -3 -5 5 -8 17 -7 17 1 21 7 20 24 -2 16 1 21 10 16 6 -4 8 -3 4
1 -13 15 -34 14 -34 -1z"/>
<path d="M304 1618 c-4 -5 -3 -12 0 -15 3 -4 6 -1 6 6 0 7 4 10 9 6 5 -3 12
-2 15 3 3 5 -2 9 -10 9 -8 0 -17 -4 -20 -9z"/>
<path d="M266 1318 c3 -4 9 -8 15 -8 5 0 9 4 9 8 0 5 -7 9 -15 9 -8 0 -12 -4
-9 -9z"/>
<path d="M787 229 c7 -7 15 -10 18 -7 3 3 -2 9 -12 12 -14 6 -15 5 -6 -5z"/>
<path d="M2189 163 c-10 -12 -10 -14 -2 -9 9 5 12 1 10 -11 -1 -10 3 -19 8
-21 11 -2 15 47 4 54 -4 2 -13 -4 -20 -13z"/>
<path d="M2126 3394 c-4 -11 -14 -15 -31 -12 -21 4 -24 2 -23 -18 1 -13 6 -24
11 -24 4 0 6 -4 2 -9 -3 -5 -1 -12 4 -15 5 -3 11 1 15 9 3 8 1 17 -4 20 -6 4
-10 11 -10 16 0 6 4 8 9 4 5 -3 12 -1 16 5 7 11 53 3 74 -14 12 -9 12 -8 0 12
-8 12 -20 20 -28 17 -9 -3 -11 0 -7 10 3 9 0 15 -8 15 -8 0 -17 -7 -20 -16z"/>
<path d="M2260 3402 c-22 -8 -8 -22 18 -18 15 2 30 5 35 5 4 1 7 4 7 9 0 7
-41 10 -60 4z"/>
<path d="M2341 3388 c11 -21 34 -19 34 3 0 8 -10 15 -22 15 -19 1 -21 -2 -12
-18z"/>
<path d="M2411 3393 c7 -10 14 -20 16 -22 1 -1 7 0 13 4 8 5 5 11 -7 21 -25
19 -38 17 -22 -3z"/>
<path d="M2463 3396 c3 -8 1 -18 -5 -24 -7 -7 -3 -14 12 -22 20 -11 20 -13 5
-36 -18 -28 -9 -33 12 -6 12 16 13 15 11 -8 -4 -36 26 -38 44 -2 14 28 14 28
-9 24 -33 -6 -58 26 -38 48 12 13 10 17 -12 27 -20 10 -24 9 -20 -1z"/>
<path d="M2553 3394 c-4 -10 0 -22 10 -29 9 -7 15 -15 12 -19 -3 -3 1 -1 8 5
9 8 8 12 -5 20 -10 5 -15 16 -12 24 4 8 3 15 0 15 -4 0 -9 -7 -13 -16z"/>
<path d="M2595 3399 c-10 -15 3 -25 16 -12 7 7 7 13 1 17 -6 3 -14 1 -17 -5z"/>
<path d="M2635 3399 c-4 -6 -5 -12 -2 -15 2 -3 7 2 10 11 7 17 1 20 -8 4z"/>
<path d="M265 3380 c-3 -5 -1 -10 4 -10 6 0 11 5 11 10 0 6 -2 10 -4 10 -3 0
-8 -4 -11 -10z"/>
<path d="M473 3370 c3 -11 0 -23 -6 -27 -7 -4 -4 -9 8 -13 20 -7 55 16 55 36
0 13 -22 24 -47 24 -10 0 -14 -6 -10 -20z"/>
<path d="M344 3362 c3 -6 -2 -13 -13 -17 -24 -7 -34 -32 -17 -38 18 -7 50 49
35 59 -7 4 -9 3 -5 -4z"/>
<path d="M2793 3354 c-3 -8 0 -21 7 -27 10 -9 11 -9 6 1 -4 7 -2 19 4 27 9 11
9 15 1 15 -6 0 -14 -7 -18 -16z"/>
<path d="M281 3266 c-13 -15 13 -77 32 -75 8 0 8 2 -1 6 -10 4 -10 8 -1 19 9
11 8 14 -5 14 -9 0 -16 7 -16 15 0 8 5 15 10 15 6 0 10 5 10 10 0 14 -16 12
-29 -4z"/>
<path d="M218 3263 c6 -2 12 -11 12 -18 0 -13 29 -29 37 -21 7 7 -36 46 -49
45 -10 0 -10 -2 0 -6z"/>
<path d="M2736 3247 c3 -10 9 -15 12 -12 3 3 0 11 -7 18 -10 9 -11 8 -5 -6z"/>
<path d="M220 3204 c0 -8 5 -12 10 -9 6 4 8 11 5 16 -9 14 -15 11 -15 -7z"/>
<path d="M2865 3200 c3 -5 11 -10 16 -10 6 0 7 5 4 10 -3 6 -11 10 -16 10 -6
0 -7 -4 -4 -10z"/>
<path d="M320 3170 c0 -5 5 -10 11 -10 5 0 7 5 4 10 -3 6 -8 10 -11 10 -2 0
-4 -4 -4 -10z"/>
<path d="M367 3164 c-3 -5 1 -15 9 -22 16 -14 18 -5 5 17 -5 7 -11 9 -14 5z"/>
<path d="M70 3139 c0 -5 5 -7 10 -4 6 3 10 8 10 11 0 2 -4 4 -10 4 -5 0 -10
-5 -10 -11z"/>
<path d="M216 3135 c-3 -8 -1 -15 4 -15 6 0 10 7 10 15 0 8 -2 15 -4 15 -2 0
-6 -7 -10 -15z"/>
<path d="M80 3040 c0 -5 5 -10 11 -10 5 0 7 5 4 10 -3 6 -8 10 -11 10 -2 0 -4
-4 -4 -10z"/>
<path d="M166 3021 c-3 -5 1 -14 8 -20 16 -13 32 2 21 19 -8 12 -22 13 -29 1z"/>
<path d="M2926 3022 c-3 -5 1 -9 9 -9 8 0 15 4 15 9 0 4 -4 8 -9 8 -6 0 -12
-4 -15 -8z"/>
<path d="M3052 2960 c0 -14 2 -19 5 -12 2 6 2 18 0 25 -3 6 -5 1 -5 -13z"/>
<path d="M76 2958 c-11 -36 -13 -58 -5 -58 5 0 9 8 9 18 0 10 5 23 11 29 8 8
8 13 0 18 -6 3 -13 0 -15 -7z"/>
<path d="M3047 2896 c-4 -10 -1 -13 8 -9 8 3 12 9 9 14 -7 12 -11 11 -17 -5z"/>
<path d="M2977 2823 c-9 -2 -15 -9 -11 -14 4 -6 11 -6 19 1 9 8 15 8 20 0 3
-5 11 -10 16 -10 6 0 4 7 -5 15 -8 8 -16 14 -18 14 -2 -1 -11 -3 -21 -6z"/>
<path d="M90 2766 c0 -9 5 -16 10 -16 6 0 10 4 10 9 0 6 -4 13 -10 16 -5 3
-10 -1 -10 -9z"/>
<path d="M2 2741 c2 -25 4 -27 20 -17 10 6 14 12 8 14 -5 2 -10 10 -10 18 0 8
-5 14 -10 14 -6 0 -9 -13 -8 -29z"/>
<path d="M3144 2685 c3 -23 12 -26 13 -5 1 11 -2 20 -7 20 -4 0 -7 -7 -6 -15z"/>
<path d="M3140 2630 c-13 -8 -13 -10 2 -10 9 0 20 5 23 10 8 13 -5 13 -25 0z"/>
<path d="M0 2550 c0 -6 7 -10 15 -10 8 0 15 2 15 4 0 2 -7 6 -15 10 -8 3 -15
1 -15 -4z"/>
<path d="M0 2520 c0 -5 5 -10 11 -10 5 0 7 5 4 10 -3 6 -8 10 -11 10 -2 0 -4
-4 -4 -10z"/>
<path d="M3180 2521 c0 -5 7 -11 15 -15 9 -3 15 0 15 9 0 8 -7 15 -15 15 -8 0
-15 -4 -15 -9z"/>
<path d="M3227 2513 c-9 -16 8 -42 21 -34 7 4 10 15 6 24 -6 18 -20 22 -27 10z"/>
<path d="M50 2450 c-9 -6 -10 -10 -3 -10 6 0 15 5 18 10 8 12 4 12 -15 0z"/>
<path d="M90 2439 c0 -5 5 -7 10 -4 6 3 10 8 10 11 0 2 -4 4 -10 4 -5 0 -10
-5 -10 -11z"/>
<path d="M3196 2401 c-4 -7 -5 -15 -2 -18 9 -9 19 4 14 18 -4 11 -6 11 -12 0z"/>
<path d="M3296 2222 c-13 -12 -5 -20 23 -24 20 -3 27 0 24 8 -5 13 -39 25 -47
16z"/>
<path d="M3367 2197 c-15 -23 -40 -28 -65 -13 -11 7 -16 1 -13 -17 1 -4 -3
-17 -9 -27 -7 -14 -7 -20 0 -20 5 0 10 -10 10 -22 0 -12 3 -18 8 -14 4 4 7 20
7 34 0 21 6 28 23 30 13 2 29 -2 37 -8 12 -10 12 -14 0 -27 -16 -16 -21 -68
-5 -58 5 3 7 12 3 20 -4 11 2 15 21 15 21 0 26 5 26 25 0 16 -6 25 -15 25 -8
0 -15 4 -15 9 0 5 -3 16 -6 24 -3 8 2 22 11 31 9 9 12 16 7 16 -5 0 -17 -11
-25 -23z"/>
<path d="M3320 2123 c0 -13 5 -23 10 -23 13 0 13 11 0 30 -8 12 -10 11 -10 -7z"/>
<path d="M3206 1934 c-18 -13 -17 -14 8 -24 34 -13 33 -13 39 3 8 22 -26 37
-47 21z m28 -2 c3 -5 -1 -9 -9 -9 -8 0 -12 4 -9 9 3 4 7 8 9 8 2 0 6 -4 9 -8z"/>
<path d="M3323 1823 c-18 -7 -16 -33 2 -33 8 0 15 9 15 20 0 11 -1 20 -2 19
-2 0 -9 -3 -15 -6z"/>
<path d="M3276 1706 c3 -9 11 -16 16 -16 13 0 5 23 -10 28 -7 2 -10 -2 -6 -12z"/>
<path d="M3176 1551 c-3 -5 2 -15 12 -22 15 -12 16 -12 5 2 -7 9 -10 19 -6 22
3 4 4 7 0 7 -3 0 -8 -4 -11 -9z"/>
<path d="M3142 1374 c9 -9 21 -15 27 -13 6 2 -2 10 -17 17 -25 11 -25 11 -10
-4z"/>
<path d="M3082 1114 c-7 -8 -8 -14 -3 -14 10 0 25 19 20 25 -2 1 -10 -3 -17
-11z"/>
<path d="M2940 1076 c0 -9 -10 -20 -22 -25 -16 -6 -18 -10 -8 -16 8 -5 16 -2
22 9 5 9 13 16 18 16 9 0 8 -19 -3 -36 -4 -7 1 -14 13 -17 15 -4 20 0 20 13 0
25 17 34 60 33 19 -1 27 1 18 4 -10 2 -18 8 -18 13 0 4 -9 10 -20 13 -13 3
-21 -1 -26 -15 -6 -19 -6 -19 -30 3 -20 19 -24 20 -24 5z"/>
<path d="M3040 1030 c-13 -8 -13 -10 2 -10 9 0 20 5 23 10 8 13 -5 13 -25 0z"/>
<path d="M2910 999 c0 -5 5 -7 10 -4 6 3 10 8 10 11 0 2 -4 4 -10 4 -5 0 -10
-5 -10 -11z"/>
<path d="M23 985 c4 -8 0 -18 -7 -22 -12 -7 -12 -10 0 -21 12 -11 14 -10 14 6
0 10 5 23 11 29 7 7 5 12 -6 17 -13 4 -16 2 -12 -9z"/>
<path d="M3151 984 c0 -11 3 -14 6 -6 3 7 2 16 -1 19 -3 4 -6 -2 -5 -13z"/>
<path d="M90 960 c0 -5 5 -10 10 -10 6 0 10 5 10 10 0 6 -4 10 -10 10 -5 0
-10 -4 -10 -10z"/>
<path d="M3046 953 c-6 -14 -5 -15 5 -6 7 7 10 15 7 18 -3 3 -9 -2 -12 -12z"/>
<path d="M3000 956 c0 -2 7 -7 16 -10 8 -3 12 -2 9 4 -6 10 -25 14 -25 6z"/>
<path d="M0 802 c0 -25 46 -37 54 -15 5 11 2 13 -10 9 -9 -4 -23 -1 -30 5 -9
8 -14 8 -14 1z"/>
<path d="M27 609 c13 -13 67 -23 60 -12 -4 6 -20 13 -37 15 -17 3 -27 1 -23
-3z"/>
<path d="M4 576 c-3 -8 -4 -23 -2 -33 3 -13 7 -9 15 15 12 31 -1 48 -13 18z"/>
<path d="M35 560 c3 -5 8 -10 11 -10 2 0 4 5 4 10 0 6 -5 10 -11 10 -5 0 -7
-4 -4 -10z"/>
<path d="M70 561 c0 -6 5 -13 10 -16 6 -3 10 1 10 9 0 9 -4 16 -10 16 -5 0
-10 -4 -10 -9z"/>
<path d="M180 564 c0 -6 3 -14 7 -18 4 -4 8 -13 8 -19 0 -14 7 -17 35 -17 11
0 20 5 20 12 0 6 -3 8 -7 5 -4 -4 -19 5 -35 20 -15 15 -28 22 -28 17z"/>
<path d="M2966 526 c3 -9 11 -16 16 -16 13 0 5 23 -10 28 -7 2 -10 -2 -6 -12z"/>
<path d="M240 488 c0 -4 4 -8 9 -8 6 0 12 4 15 8 3 5 -1 9 -9 9 -8 0 -15 -4
-15 -9z"/>
<path d="M81 454 c0 -11 3 -14 6 -6 3 7 2 16 -1 19 -3 4 -6 -2 -5 -13z"/>
<path d="M365 460 c-3 -5 1 -10 9 -10 9 0 16 5 16 10 0 6 -4 10 -9 10 -6 0
-13 -4 -16 -10z"/>
<path d="M196 424 c-5 -14 -4 -15 9 -4 17 14 19 20 6 20 -5 0 -12 -7 -15 -16z"/>
<path d="M3005 430 c3 -5 8 -10 11 -10 2 0 4 5 4 10 0 6 -5 10 -11 10 -5 0 -7
-4 -4 -10z"/>
<path d="M360 381 c14 -27 23 -31 40 -19 12 8 11 9 -3 4 -13 -4 -20 0 -24 14
-3 11 -9 20 -15 20 -5 0 -4 -9 2 -19z"/>
<path d="M280 350 c0 -5 5 -10 11 -10 5 0 7 5 4 10 -3 6 -8 10 -11 10 -2 0 -4
-4 -4 -10z"/>
<path d="M2930 350 c0 -5 7 -7 15 -4 8 4 15 8 15 10 0 2 -7 4 -15 4 -8 0 -15
-4 -15 -10z"/>
<path d="M3005 340 c-3 -5 1 -10 10 -10 9 0 13 5 10 10 -3 6 -8 10 -10 10 -2
0 -7 -4 -10 -10z"/>
<path d="M2810 312 c0 -11 -6 -22 -12 -25 -10 -4 -10 -7 0 -18 10 -10 15 -11
20 -2 5 8 13 9 22 3 13 -8 13 -10 1 -10 -8 0 -12 -2 -9 -5 2 -3 16 1 30 7 l26
13 -26 12 -27 11 28 1 c29 1 39 21 10 21 -10 0 -28 3 -40 6 -18 5 -23 2 -23
-14z"/>
<path d="M2935 310 c3 -5 10 -10 16 -10 5 0 9 5 9 10 0 6 -7 10 -16 10 -8 0
-12 -4 -9 -10z"/>
<path d="M345 300 c3 -5 8 -10 11 -10 2 0 4 5 4 10 0 6 -5 10 -11 10 -5 0 -7
-4 -4 -10z"/>
<path d="M2900 250 c0 -5 5 -10 11 -10 5 0 7 5 4 10 -3 6 -8 10 -11 10 -2 0
-4 -4 -4 -10z"/>
<path d="M2876 212 c-3 -5 1 -9 9 -9 8 0 12 4 9 9 -3 4 -7 8 -9 8 -2 0 -6 -4
-9 -8z"/>
<path d="M429 163 c-13 -17 -13 -17 6 -3 11 8 22 16 24 17 2 2 0 3 -6 3 -6 0
-17 -8 -24 -17z"/>
<path d="M2870 146 c0 -19 -3 -41 -6 -50 -3 -9 -1 -16 5 -16 6 0 11 7 11 15 0
8 4 15 9 15 14 0 21 43 9 57 -18 22 -28 15 -28 -21z"/>
<path d="M2925 160 c3 -5 8 -10 11 -10 2 0 4 5 4 10 0 6 -5 10 -11 10 -5 0 -7
-4 -4 -10z"/>
<path d="M2832 141 c-8 -4 -10 -15 -6 -26 7 -17 8 -16 16 5 10 27 7 32 -10 21z"/>
<path d="M353 120 c-12 -10 -24 -16 -29 -12 -4 4 -4 2 -1 -5 9 -14 47 -5 54
14 9 23 -2 24 -24 3z"/>
<path d="M360 46 c0 -2 7 -9 15 -16 9 -7 15 -8 15 -2 0 5 -7 12 -15 16 -8 3
-15 4 -15 2z"/>
<path d="M410 26 c0 -2 7 -7 16 -10 8 -3 12 -2 9 4 -6 10 -25 14 -25 6z"/>
</g>
</svg>
